<?xml version="1.0" standalone="no"?>
<!DOCTYPE svg PUBLIC "-//W3C//DTD SVG 20010904//EN"
 "http://www.w3.org/TR/2001/REC-SVG-20010904/DTD/svg10.dtd">
<svg version="1.0" xmlns="http://www.w3.org/2000/svg"
 width="1024.000000pt" height="1024.000000pt" viewBox="0 0 1024.000000 1024.000000"
 preserveAspectRatio="xMidYMid meet">
<metadata>
Created by potrace 1.11, written by Peter Selinger 2001-2013
</metadata>
<g transform="translate(0.000000,1024.000000) scale(0.100000,-0.100000)"
fill="#000000" stroke="none">
<path d="M503 8370 c-103 -21 -178 -99 -198 -205 -4 -22 -6 -218 -6 -435 2
-538 -25 -1070 -94 -1880 -14 -157 -29 -341 -35 -410 -17 -198 -56 -571 -104
-985 -14 -115 -32 -275 -40 -355 -37 -335 -7 -911 65 -1264 25 -123 91 -331
129 -406 63 -125 197 -249 344 -320 135 -64 208 -77 531 -100 458 -31 750 -48
1025 -60 140 -6 338 -15 440 -20 361 -18 960 -39 1275 -44 176 -4 574 -11 885
-17 550 -11 740 -10 1750 11 600 12 1039 25 1685 50 275 11 657 24 850 30 383
11 441 17 562 60 163 56 334 191 416 327 94 155 186 542 223 933 32 353 24
620 -42 1240 -177 1682 -196 1963 -199 3011 -2 590 -3 617 -22 661 -27 59 -75
103 -143 130 l-55 21 -1220 3 c-1681 5 -6593 23 -7355 28 -344 3 -644 1 -667
-4z m5887 -216 c118 -4 153 -9 190 -26 25 -12 51 -22 58 -24 21 -4 63 -55 86
-104 21 -44 21 -53 18 -695 -3 -852 -11 -1797 -18 -2270 -6 -422 -12 -471 -70
-590 -86 -176 -236 -301 -424 -352 -59 -16 -121 -18 -625 -18 -1432 0 -4055
16 -4114 26 -90 14 -210 63 -278 113 -134 98 -236 251 -267 398 -18 86 -21
266 -37 2058 -6 679 -8 1254 -5 1278 12 88 75 167 162 203 49 20 65 20 2614
14 1411 -3 2630 -8 2710 -11z m1589 -348 c18 -22 7 -61 -18 -64 -29 -5 -51 15
-51 43 0 34 47 48 69 21z m39 -19 c-2 -14 2 -22 12 -22 9 0 16 11 18 28 2 15
8 27 13 27 16 0 6 -62 -12 -73 -28 -18 -49 -1 -49 38 0 23 4 34 10 30 6 -4 10
-16 8 -28z m134 21 c-7 -7 -12 -22 -12 -34 0 -13 -4 -26 -10 -29 -6 -4 -10 6
-10 24 0 16 -4 33 -10 36 -6 4 -10 -6 -10 -23 0 -16 -3 -32 -6 -35 -13 -13
-20 3 -16 37 4 35 6 36 45 36 32 0 38 -3 29 -12z m-583 -143 c16 -8 31 -24 34
-35 8 -29 -4 -320 -13 -325 -5 -3 -6 66 -3 153 6 192 3 201 -92 209 -33 2 -78
0 -100 -5 -35 -9 -28 -10 56 -11 73 -1 100 -5 109 -16 10 -12 11 -52 6 -173
-8 -190 -11 -195 -125 -207 -104 -10 -189 2 -219 32 l-24 24 7 167 c4 92 11
175 16 185 9 15 27 17 165 17 116 0 162 -4 183 -15z m662 -4 l24 -19 -4 -429
c-3 -341 -6 -434 -17 -455 -23 -44 -67 -61 -177 -66 -124 -6 -198 9 -228 46
-21 27 -21 32 -17 460 l3 434 28 24 c27 23 33 24 196 24 151 0 171 -2 192 -19z
m968 4 c82 -17 155 -52 191 -90 19 -21 25 -37 25 -74 0 -58 -24 -97 -73 -118
-79 -33 -469 -27 -535 9 -26 14 -57 68 -57 101 0 78 63 130 202 167 89 23 155
25 247 5z m-498 -458 c23 -15 37 -35 46 -65 17 -61 26 -291 15 -404 -11 -116
-37 -162 -98 -174 -90 -17 -142 29 -185 161 -52 157 -16 394 72 476 40 37 100
40 150 6z m875 7 c42 -20 66 -58 95 -154 41 -132 29 -278 -33 -406 -34 -71
-67 -94 -133 -94 -41 0 -52 5 -81 35 -42 45 -48 90 -42 335 5 208 12 233 78
277 39 27 70 29 116 7z m-1990 -278 c3 -7 6 -35 6 -62 3 -142 -7 -164 -70
-164 -44 0 -86 25 -78 47 4 9 -1 17 -14 20 -11 3 -20 12 -20 19 0 10 -6 8 -20
-6 -21 -21 -46 -18 -67 8 -12 14 -13 14 -13 -1 0 -19 -30 -24 -31 -4 0 10 -2
10 -6 0 -7 -19 -33 -16 -34 5 -1 16 -2 16 -6 0 -9 -35 -24 -17 -21 24 3 45 26
64 35 29 7 -27 19 -27 26 -1 7 28 37 26 38 -2 0 -16 2 -18 6 -8 13 34 55 40
86 13 11 -10 17 -12 13 -5 -5 9 -1 15 11 18 15 4 18 12 15 34 -4 27 -8 29 -61
35 -102 11 -97 12 52 14 117 1 149 -2 153 -13z m549 -345 l40 -1 -1 -53 c0
-28 -2 -58 -2 -64 -2 -15 -55 -16 -205 -6 l-98 6 3 56 3 56 56 -3 c30 -1 65 1
78 6 12 4 36 7 54 6 18 -1 50 -2 72 -3z m1079 -176 c102 -7 138 -22 166 -68
72 -117 -58 -222 -286 -234 -143 -8 -303 43 -345 110 -38 60 -9 145 59 174 36
15 228 33 287 27 17 -2 70 -6 119 -9z m-1947 -31 c-3 -3 -12 -4 -19 -1 -8 3
-5 6 6 6 11 1 17 -2 13 -5z m304 -4 c17 -9 19 -22 19 -101 0 -111 -8 -129 -58
-129 -64 0 -81 9 -80 41 1 23 4 27 14 18 8 -6 11 -16 7 -23 -4 -8 -3 -8 6 0
10 9 10 16 -1 33 -15 25 -33 27 -42 6 -4 -12 -21 -15 -78 -13 l-73 3 0 39 c0
23 5 41 13 44 8 2 12 -7 12 -26 0 -45 28 -50 36 -7 4 25 11 35 25 35 11 0 22
0 26 1 4 0 9 -4 11 -10 2 -6 -7 -12 -20 -12 l-23 -2 23 -4 c12 -2 22 -8 22
-13 0 -5 -10 -10 -22 -12 l-23 -3 23 -7 c18 -5 25 -1 32 18 6 14 22 36 36 49
15 14 21 25 15 25 -7 0 -10 4 -6 9 9 15 -29 31 -77 32 -24 1 -56 5 -73 9 -19
5 20 8 103 9 75 0 142 -4 153 -9z m645 -15 l25 -25 -3 -348 c-3 -383 -2 -378
-67 -408 -46 -22 -190 -30 -263 -15 -36 8 -66 21 -82 38 l-26 26 0 344 c0 306
2 348 17 374 9 15 24 30 32 32 9 3 89 5 179 6 162 1 163 1 188 -24z m-946 -75
c0 -5 -9 -10 -20 -10 -28 0 -26 -38 3 -49 19 -8 20 -10 5 -16 -41 -16 -77 42
-46 73 15 15 58 16 58 2z m187 -318 c0 -25 -3 -28 -25 -24 -20 4 -22 6 -9 14
9 5 14 15 11 23 -4 9 0 15 8 15 9 0 15 -10 15 -28z m-67 -27 c0 -8 -9 -15 -20
-15 -11 0 -20 -4 -20 -10 0 -5 9 -10 21 -10 11 0 17 -4 14 -10 -18 -30 -71 9
-55 41 13 23 60 26 60 4z m2107 -80 c24 -28 25 -34 21 -120 -6 -101 -16 -128
-56 -149 -91 -47 -856 -45 -975 3 -44 17 -60 69 -54 169 4 69 9 88 28 108 l23
25 494 -3 494 -3 25 -30z m-1929 -51 c21 -14 22 -21 17 -105 -3 -50 -8 -95
-11 -100 -14 -23 -55 -29 -91 -14 -30 13 -34 18 -28 37 15 48 17 78 6 78 -6 0
-11 -13 -11 -30 0 -36 -21 -40 -43 -7 l-16 22 0 -23 c-1 -21 -5 -23 -43 -20
-43 3 -43 3 -43 42 0 23 5 41 13 44 8 2 12 -8 12 -32 0 -48 27 -49 36 -1 7 41
35 48 52 13 10 -22 11 -22 11 -2 1 31 12 36 35 17 12 -10 15 -11 9 -3 -15 17
-17 34 -3 25 6 -3 10 -1 10 5 0 6 -7 13 -15 16 -8 4 -13 10 -10 14 5 9 -53 20
-108 20 -23 0 -36 4 -32 10 4 6 54 10 118 10 86 0 118 -4 135 -16z m-89 -411
c-1 -37 -1 -37 -8 -8 -7 28 -5 45 5 45 2 0 3 -17 3 -37z m661 1 c0 -19 -4 -33
-8 -30 -4 2 -7 17 -6 33 3 33 3 33 9 33 3 0 5 -16 5 -36z m630 -4 c0 -16 -2
-30 -4 -30 -2 0 -6 14 -8 30 -3 17 -1 30 4 30 4 0 8 -13 8 -30z m570 10 c0 -5
-6 -10 -14 -10 -11 0 -13 -9 -9 -35 4 -23 2 -35 -6 -35 -6 0 -11 16 -11 35 0
24 -5 35 -15 35 -10 0 -15 -11 -15 -35 0 -19 -4 -35 -10 -35 -5 0 -10 16 -10
35 0 25 -4 35 -16 35 -8 0 -12 5 -9 10 3 6 31 10 61 10 30 0 54 -4 54 -10z
m-2050 -11 c0 -5 -4 -7 -10 -4 -14 8 -13 -8 1 -22 15 -15 4 -43 -16 -43 -18 0
-20 17 -2 23 9 3 9 7 -1 20 -8 9 -11 21 -7 27 8 13 35 13 35 -1z m30 -24 c0
-19 -4 -35 -9 -35 -8 0 -9 19 -2 63 3 21 11 2 11 -28z m51 13 l18 -23 1 25 c0
15 4 20 9 15 11 -11 3 -65 -10 -65 -4 0 -15 10 -23 22 l-16 22 0 -22 c0 -12
-4 -22 -10 -22 -5 0 -10 6 -10 13 0 18 12 57 17 57 3 0 13 -10 24 -22z m559
12 c0 -5 -9 -10 -20 -10 -28 0 -26 -36 2 -43 12 -4 19 -9 16 -13 -4 -3 -19 -4
-33 0 -43 11 -29 76 17 76 10 0 18 -4 18 -10z m71 0 c37 -20 17 -70 -28 -70
-35 0 -48 39 -21 63 24 20 24 20 49 7z m69 1 c0 -5 -6 -12 -12 -14 -10 -4 -10
-8 1 -15 8 -6 11 -17 8 -26 -7 -18 -37 -22 -37 -5 0 5 5 7 10 4 14 -8 13 8 -1
22 -15 15 -4 43 16 43 8 0 15 -4 15 -9z m37 -7 c-3 -3 -12 -4 -19 -1 -8 3 -5
6 6 6 11 1 17 -2 13 -5z m436 -1 c-7 -2 -13 -18 -13 -34 0 -16 -4 -29 -10 -29
-5 0 -10 13 -10 29 0 16 -6 32 -12 34 -7 3 3 5 22 5 19 0 29 -2 23 -5z m65
-20 c9 -25 11 -25 11 -6 1 33 21 39 42 12 l19 -24 0 23 c0 12 4 22 9 22 9 0 5
-59 -5 -69 -3 -3 -14 5 -24 19 -16 21 -20 22 -20 7 0 -26 -28 -33 -45 -11 -15
19 -15 19 -30 0 -22 -28 -26 -16 -8 22 19 39 38 41 51 5z m122 17 c0 -5 -2
-10 -4 -10 -3 0 -8 5 -11 10 -3 6 -1 10 4 10 6 0 11 -4 11 -10z m-1176 -130
c25 -9 26 -12 26 -98 0 -114 -12 -134 -78 -130 -37 2 -46 7 -44 19 1 9 -11 31
-28 49 -27 29 -30 30 -30 11 0 -12 -4 -21 -10 -21 -5 0 -10 20 -10 45 0 51 17
60 43 23 l16 -23 0 23 c1 15 7 22 21 22 14 0 19 6 17 20 -2 11 -7 24 -13 29
-5 6 -65 15 -134 21 -69 6 -127 13 -129 16 -9 9 329 3 353 -6z m-382 -22 c-7
-7 -12 -8 -12 -2 0 14 12 26 19 19 2 -3 -1 -11 -7 -17z m1036 10 c15 -15 16
-129 1 -180 -12 -45 -40 -56 -93 -38 -36 12 -43 30 -16 42 11 5 9 7 -7 7 -26
1 -32 31 -8 31 13 0 14 2 3 14 -11 12 -14 11 -20 -5 -4 -11 -18 -24 -31 -30
-52 -24 -91 36 -51 76 18 18 63 13 76 -8 6 -9 8 -9 8 0 0 6 9 15 20 18 19 6
20 8 3 35 -15 27 -21 29 -102 35 -141 10 -134 12 40 14 116 1 169 -3 177 -11z
m630 0 c20 -20 16 -187 -5 -210 -32 -35 -121 -15 -98 22 3 5 -4 24 -15 42
l-20 33 0 -27 c0 -23 -5 -28 -24 -28 -13 0 -26 7 -30 15 -7 20 -26 19 -42 -2
-23 -32 -26 -6 -4 37 22 44 52 52 58 15 7 -36 22 -41 22 -7 0 24 4 32 18 32
11 0 24 -10 31 -22 8 -15 10 -16 6 -4 -3 10 0 25 6 32 9 11 9 13 -2 9 -8 -2
-21 0 -29 5 -13 9 -13 11 0 19 8 6 12 12 9 16 -3 3 -60 12 -125 19 l-119 14
176 1 c124 1 178 -2 187 -11z m640 0 c19 -19 16 -193 -4 -212 -18 -19 -86 -21
-113 -4 -17 10 -18 13 -5 23 13 9 8 16 -30 43 l-44 32 -31 -26 c-26 -21 -32
-23 -37 -10 -5 14 50 75 69 76 5 0 24 -12 43 -26 19 -15 34 -22 34 -16 0 6
-10 18 -22 26 -12 9 -17 16 -11 16 7 0 15 -4 18 -10 3 -5 11 -10 17 -10 7 0 6
6 -2 15 -9 11 -10 15 -1 15 8 0 7 6 -3 16 -9 8 -14 19 -11 23 5 9 -63 20 -134
22 -25 1 -59 5 -76 9 -17 4 45 8 151 9 128 1 183 -2 192 -11z m-2148 -84 c0
-8 -4 -12 -10 -9 -5 3 -10 2 -10 -4 0 -5 5 -13 10 -16 6 -3 10 -15 10 -26 0
-14 -7 -19 -25 -19 -14 0 -25 5 -25 10 0 6 7 10 17 10 15 0 15 1 0 18 -20 22
-22 38 -4 45 24 10 37 7 37 -9z m40 -29 c0 -33 -4 -45 -15 -45 -11 0 -15 11
-15 38 0 21 3 42 7 45 16 16 23 4 23 -38z m597 28 c2 -6 -6 -13 -19 -15 -31
-4 -36 -35 -6 -40 25 -3 28 -21 4 -26 -22 -5 -57 34 -49 55 13 38 61 55 70 26z
m633 -3 c0 -5 -7 -10 -15 -10 -11 0 -15 -11 -15 -36 0 -24 -4 -34 -12 -31 -8
2 -12 16 -10 35 2 18 -1 32 -7 32 -6 0 -11 5 -11 10 0 6 16 10 35 10 19 0 35
-4 35 -10z m-1220 -291 c-6 -18 -5 -40 1 -56 11 -29 4 -42 -13 -25 -12 12 -15
83 -4 101 14 23 24 10 16 -20z m646 -4 c6 -19 8 -35 3 -35 -4 0 -9 -10 -11
-22 -2 -12 -8 -23 -15 -25 -9 -3 -10 4 -4 24 9 32 8 63 -3 81 -4 7 -2 12 6 12
7 0 18 -16 24 -35z m638 27 c-18 -11 -27 -94 -12 -104 9 -5 6 -8 -10 -8 -22 0
-23 3 -17 48 9 65 12 72 32 72 11 0 14 -3 7 -8z m626 -52 c0 -43 -4 -60 -13
-60 -10 0 -12 12 -7 50 4 29 2 54 -4 60 -7 7 -5 10 7 10 14 0 17 -10 17 -60z
m-8730 -131 c0 -12 8 -28 18 -36 16 -12 15 -13 -8 -11 -20 2 -26 9 -28 36 -2
18 1 32 7 32 6 0 11 -10 11 -21z m99 9 c11 -10 14 -10 18 0 3 6 14 12 26 12
21 0 21 0 -2 -16 l-24 -17 24 -18 c18 -14 20 -19 8 -19 -9 0 -22 7 -29 15 -11
13 -14 13 -27 -1 -18 -18 -42 -15 -56 7 -24 38 29 68 62 37z m116 -6 c-3 -8 0
-21 6 -29 7 -7 9 -16 5 -20 -3 -4 -13 2 -21 13 -8 11 -15 14 -15 7 0 -24 -20
-13 -20 10 0 29 3 33 30 33 14 0 19 -5 15 -14z m6782 -17 c19 -13 20 -21 16
-107 -6 -101 -15 -118 -64 -118 -33 0 -36 9 -29 107 3 41 3 78 0 83 -10 16
-87 29 -186 32 -163 5 -109 18 74 18 131 0 172 -3 189 -15z m-377 -5 c0 -5 -5
-10 -11 -10 -5 0 -7 5 -4 10 3 6 8 10 11 10 2 0 4 -4 4 -10z m1018 -2 c19 -19
16 -178 -4 -206 -27 -39 -122 -23 -109 18 7 21 8 124 2 155 -3 17 -15 21 -83
28 -43 4 -107 6 -141 4 -34 -1 -59 1 -57 5 9 14 378 10 392 -4z m637 -8 c15
-16 17 -33 13 -104 -5 -98 -15 -116 -68 -116 -39 0 -79 29 -52 37 6 3 10 8 7
13 -13 21 -13 101 -1 106 8 3 11 15 8 29 -5 27 -9 28 -187 43 -98 9 -97 9 81
11 168 1 182 0 199 -19z m647 3 c15 -13 18 -31 18 -99 0 -93 -11 -127 -47
-143 -38 -17 -317 -15 -352 4 -37 19 -41 31 -41 131 0 131 -13 124 212 124
164 0 194 -2 210 -17z m-2099 -115 c-2 -35 -6 -69 -8 -75 -8 -24 -23 -13 -29
22 -8 43 10 115 28 115 11 0 13 -14 9 -62z m641 40 c10 -38 7 -67 -10 -100
-20 -40 -37 -24 -24 22 6 19 7 50 4 67 -5 25 -3 33 9 33 8 0 17 -10 21 -22z
m642 -40 c-8 -44 -56 -80 -56 -43 0 8 4 15 8 15 5 0 7 14 4 30 -4 27 -2 30 23
30 26 0 27 -2 21 -32z m-8136 2 c-24 -15 -36 -11 -14 4 10 8 21 12 24 10 2 -3
-2 -9 -10 -14z m283 -2 c14 -13 32 -46 41 -75 20 -65 74 -158 126 -218 43 -50
44 -53 31 -74 -7 -10 -12 -8 -22 12 -8 14 -36 56 -63 92 -26 37 -63 100 -81
142 -55 126 -51 124 -182 124 -63 0 -113 4 -113 10 0 5 52 9 119 9 110 0 122
-2 144 -22z m-110 -94 c43 -6 48 -10 81 -64 40 -65 42 -70 22 -70 -8 0 -29
-20 -47 -45 -54 -76 -134 -100 -196 -59 -52 33 -32 177 30 222 35 24 42 25
110 16z m6667 -159 l-7 -50 -2 46 c0 25 2 49 6 52 10 11 11 5 3 -48z m1350 15
c0 -16 -4 -30 -10 -30 -11 0 -14 43 -3 53 11 12 13 8 13 -23z m-698 -25 c-6
-29 -13 -39 -30 -41 -16 -3 -22 1 -22 15 0 11 5 23 12 27 8 5 9 2 5 -9 -3 -10
-2 -17 3 -17 6 0 10 7 10 15 0 16 22 56 27 51 2 -2 0 -20 -5 -41z m1335 28
c-4 -3 -26 -7 -49 -7 -39 -1 -44 -4 -61 -38 -20 -45 -30 -47 -46 -12 -14 32
-6 45 12 20 13 -17 14 -16 26 13 13 29 16 31 69 31 30 0 52 -3 49 -7z m-727
-25 c0 -4 -5 -10 -10 -13 -8 -5 -8 -11 0 -20 9 -11 5 -14 -19 -13 -25 1 -27 3
-16 15 8 7 12 20 9 28 -4 9 1 13 15 12 12 -1 21 -5 21 -9z m849 -144 c18 -23
20 -36 15 -98 -11 -148 -13 -149 -236 -144 l-160 3 -24 28 c-21 25 -24 38 -24
114 0 127 -8 123 221 123 l188 0 20 -26z m-8479 -81 c-19 -7 -30 -24 -24 -35
11 -17 41 -7 52 17 15 33 30 32 44 -2 l12 -28 4 28 c2 15 8 27 14 27 6 0 8
-11 6 -25 -4 -17 -1 -25 8 -25 8 0 14 -5 14 -11 0 -15 -53 -7 -67 11 -10 13
-14 12 -31 -4 -23 -20 -50 -18 -65 5 -15 24 -1 49 25 48 15 0 18 -3 8 -6z
m173 -3 c-28 -12 -30 -30 -3 -37 27 -7 25 -25 -2 -21 -41 6 -36 68 4 67 l23 0
-22 -9z m6237 0 c0 -5 -14 -39 -32 -75 -22 -44 -38 -65 -50 -65 -23 0 -23 1 7
60 31 60 31 60 1 60 -26 0 -40 12 -29 24 10 10 103 7 103 -4z m611 0 c21 -12
26 -45 8 -56 -8 -4 -8 -9 0 -17 20 -20 13 -56 -13 -63 -62 -15 -100 9 -80 54
4 9 6 29 5 44 -3 40 39 60 80 38z m657 -40 c3 -38 -27 -96 -53 -107 -27 -10
-28 4 -1 44 30 43 33 71 10 80 -24 9 -37 -19 -17 -35 24 -17 1 -42 -25 -26
-46 29 -13 87 47 82 33 -3 36 -6 39 -38z m-7798 -9 c0 -11 -4 -23 -10 -26 -5
-3 -10 -15 -10 -26 0 -10 -5 -19 -11 -19 -6 0 -8 9 -4 23 4 12 9 30 11 39 3
10 -2 18 -13 21 -12 3 -8 5 10 6 20 1 27 -4 27 -18z m650 -11 c0 -16 -4 -30
-10 -30 -5 0 -10 14 -10 30 0 17 5 30 10 30 6 0 10 -13 10 -30z m1243 -1 c16
-26 1 -49 -33 -49 -23 0 -30 4 -30 20 0 12 10 24 23 30 12 5 17 9 10 9 -25 2
-43 -12 -43 -34 0 -30 23 -48 52 -40 19 6 21 5 11 -6 -16 -16 -61 -3 -76 22
-17 27 17 71 50 67 14 -2 31 -10 36 -19z m1287 -38 c0 -3 -11 -13 -23 -22 -22
-16 -22 -16 -22 27 l0 43 23 -21 c12 -12 22 -24 22 -27z m-670 28 c0 7 4 10 9
6 10 -6 9 -44 -2 -61 -3 -6 -16 -10 -29 -9 -18 2 -22 7 -20 26 4 44 11 53 27
39 11 -9 15 -9 15 -1z m-1613 -8 c17 15 17 -1 0 -34 l-13 -24 -12 25 c-15 33
-16 50 0 34 8 -8 15 -9 25 -1z m314 -41 c5 0 7 11 3 24 -5 21 -3 24 15 19 17
-4 19 -9 10 -24 -7 -13 -6 -19 1 -19 6 0 15 10 21 23 6 13 19 23 30 24 15 1
19 -5 19 -32 0 -44 -18 -55 -22 -13 l-3 33 -18 -34 c-14 -24 -22 -30 -30 -22
-7 7 -14 7 -24 0 -10 -9 -16 -4 -27 22 -8 19 -12 38 -8 43 3 6 10 -2 15 -17 5
-15 13 -27 18 -27z m164 33 c7 21 8 20 12 -6 3 -16 2 -36 -2 -45 -6 -15 -9
-14 -25 6 -21 25 -35 29 -27 7 4 -8 2 -17 -3 -20 -12 -7 -14 58 -3 69 4 4 15
-2 24 -13 l17 -20 7 22z m79 11 c9 -3 16 -13 16 -22 0 -12 4 -11 16 6 18 27
51 26 68 0 23 -38 -36 -77 -64 -43 -12 14 -14 14 -31 -1 -24 -21 -53 -14 -57
14 -7 46 12 62 52 46z m152 -54 c4 0 4 11 2 24 -4 18 0 26 13 29 15 4 17 0 13
-27 l-5 -31 16 28 c8 15 20 27 26 27 6 0 3 -14 -8 -31 -24 -42 -66 -48 -82
-13 -6 14 -11 33 -10 42 0 10 7 3 15 -15 8 -18 17 -33 20 -33z m414 50 c0 -5
-9 -10 -20 -10 -25 0 -38 -29 -19 -40 15 -10 32 -3 24 11 -4 5 1 9 10 9 28 0
13 -35 -17 -38 -19 -2 -30 3 -39 19 -10 20 -9 25 11 41 24 20 50 24 50 8z m68
-2 c8 -8 9 -15 0 -25 -6 -7 -7 -17 -3 -21 4 -4 10 -1 12 5 3 7 13 23 23 35
l19 23 13 -32 c16 -42 28 -42 28 -2 0 28 3 31 23 24 12 -3 28 -7 35 -7 6 -1
12 -5 12 -10 0 -4 9 -8 20 -8 11 0 20 5 20 10 0 6 5 10 10 10 6 0 10 -13 10
-29 0 -17 -4 -33 -10 -36 -5 -3 -10 1 -10 9 0 9 -9 16 -20 16 -11 0 -20 -7
-20 -16 0 -8 -4 -13 -9 -10 -5 3 -7 15 -4 26 3 11 0 20 -6 20 -6 0 -11 -4 -11
-10 0 -5 -7 -10 -15 -10 -8 0 -15 -7 -15 -15 0 -20 -19 -19 -43 2 -18 17 -19
17 -32 0 -6 -9 -19 -17 -28 -17 -20 0 -30 29 -16 46 9 11 8 14 -5 14 -11 0
-16 -10 -17 -32 -2 -32 -2 -32 -6 -5 -8 51 16 74 45 45z m620 -2 c5 -3 8 -17
7 -33 0 -23 -5 -29 -27 -31 -25 -3 -28 0 -28 27 0 21 -5 31 -15 31 -10 0 -15
-10 -15 -31 0 -16 -4 -28 -9 -25 -5 3 -7 15 -4 25 3 10 0 22 -6 25 -6 4 -11
12 -11 17 0 10 91 6 108 -5z m101 -8 c-11 -7 -11 -11 -1 -15 6 -2 12 -13 12
-24 0 -16 -7 -19 -45 -19 -45 0 -45 0 -45 35 0 19 4 35 9 35 4 0 8 -12 7 -27
-1 -24 3 -28 27 -28 31 -1 31 -1 15 25 -11 17 -10 22 2 30 18 11 36 0 19 -12z
m132 -1 c-6 -6 -11 -21 -11 -34 0 -13 -5 -23 -11 -23 -6 0 -9 12 -7 28 3 23
-1 27 -24 30 -16 2 -28 -1 -28 -7 0 -6 6 -11 13 -12 6 0 3 -4 -8 -9 -19 -8
-19 -8 5 -18 l25 -11 -27 0 c-32 -1 -38 6 -31 41 6 30 19 35 76 29 28 -2 36
-6 28 -14z m-2841 3 c0 -14 28 -12 33 3 8 22 15 3 10 -25 -3 -16 -10 -28 -15
-28 -5 0 -7 4 -3 9 3 5 1 12 -5 16 -6 3 -13 -1 -16 -9 -10 -26 -24 -18 -24 14
0 17 5 30 10 30 6 0 10 -4 10 -10z m124 -5 c12 -31 -17 -61 -48 -49 -21 8 -28
34 -15 50 15 19 55 18 63 -1z m36 0 c0 -8 4 -15 9 -15 5 0 11 7 15 15 10 26
26 16 26 -15 0 -16 -5 -30 -11 -30 -5 0 -7 5 -4 10 3 6 2 10 -4 10 -5 0 -12
-6 -15 -12 -5 -10 -7 -10 -12 1 -5 11 -8 11 -15 0 -12 -20 -18 -8 -12 24 6 28
23 38 23 12z m98 8 c-21 -5 -24 -23 -5 -24 6 0 3 -4 -8 -9 -17 -7 -17 -9 -2
-9 9 -1 17 -5 17 -10 0 -5 -8 -8 -17 -7 -12 2 -19 13 -21 34 -3 29 -1 32 25
31 17 -1 21 -3 11 -6z m2955 0 c-7 -2 -13 -18 -13 -34 0 -41 -17 -36 -22 6 -4
32 -2 35 22 34 14 0 19 -3 13 -6z m65 -21 c5 -30 22 -28 22 3 0 20 5 25 25 25
22 0 25 -4 25 -35 0 -34 -1 -35 -39 -35 -22 0 -41 5 -44 13 -3 10 -9 10 -26 0
-31 -19 -32 -17 -14 22 19 40 46 43 51 7z m123 -32 c14 0 19 7 19 30 0 26 3
30 28 29 16 -1 20 -3 10 -6 -10 -2 -18 -9 -18 -14 0 -5 8 -10 18 -10 16 -1 16
-2 0 -6 -10 -2 -18 -8 -18 -13 0 -5 8 -11 18 -13 9 -3 -9 -5 -40 -6 -61 -1
-64 2 -50 49 7 24 7 24 10 -7 2 -25 8 -33 23 -33z m1105 44 c-3 -9 -6 -22 -6
-30 0 -8 -4 -14 -10 -14 -5 0 -10 14 -10 30 0 21 5 30 16 30 11 0 14 -5 10
-16z m1240 -44 c8 0 14 10 14 24 0 14 5 28 11 31 7 5 9 -5 7 -26 -3 -30 -6
-34 -33 -34 -32 0 -44 21 -29 53 6 13 9 9 12 -15 2 -20 9 -33 18 -33z m97 20
c3 0 8 10 10 23 3 13 5 8 6 -15 1 -42 -23 -54 -34 -18 -3 11 -11 20 -17 20 -5
0 -8 -7 -5 -15 4 -8 2 -17 -3 -20 -12 -7 -14 48 -3 59 4 4 15 -2 24 -13 10
-12 20 -21 22 -21z m146 29 c-11 -6 -11 -11 -1 -21 19 -19 14 -38 -10 -38 -17
0 -19 3 -10 9 12 7 12 12 0 30 -17 27 -31 22 -39 -15 l-6 -29 -4 29 c-6 41
-29 46 -29 7 0 -17 -4 -31 -10 -31 -11 0 -12 15 -4 48 6 20 12 22 66 21 36 -1
55 -5 47 -10z m-5126 -16 c-7 -2 -21 -2 -30 0 -10 3 -4 5 12 5 17 0 24 -2 18
-5z m7 -24 c0 -5 -12 -9 -26 -9 -14 0 -23 4 -20 8 7 11 46 12 46 1z m4780 -9
c0 -6 -28 -10 -65 -10 -37 0 -65 4 -65 10 0 6 28 10 65 10 37 0 65 -4 65 -10z
m-5404 -150 l1 -95 -7 75 c-10 118 4 110 -192 110 -98 0 -178 -4 -189 -10 -11
-7 -19 -7 -19 -1 0 18 25 20 215 18 l190 -2 1 -95z m632 88 c15 -15 17 -178 2
-178 -6 0 -10 31 -10 73 0 39 -5 79 -10 87 -8 12 -40 15 -187 15 l-177 0 -13
-25 c-11 -22 -13 -23 -13 -4 0 41 15 44 210 44 131 0 190 -4 198 -12z m630 0
c15 -15 16 -174 2 -183 -6 -4 -10 23 -10 73 0 105 -2 107 -144 106 -232 -1
-236 -2 -246 -26 -8 -22 -9 -22 -9 -2 -2 41 14 44 209 44 131 0 190 -4 198
-12z m634 -4 c5 -3 7 -47 7 -97 l-2 -92 -7 78 c-4 42 -13 84 -20 92 -10 12
-43 15 -177 15 -94 0 -173 -4 -184 -10 -15 -8 -19 -7 -19 4 0 8 12 16 28 19
35 5 364 -3 374 -9z m638 -13 c12 -24 13 -151 1 -170 -6 -9 -10 18 -12 73 -3
62 -8 89 -19 96 -22 14 -362 2 -372 -13 -6 -9 -8 -8 -8 4 0 9 3 19 7 22 3 4
93 7 199 7 181 0 194 -1 204 -19z m630 -7 c13 -33 13 -161 0 -169 -6 -4 -10
21 -10 67 0 115 6 111 -204 106 -140 -3 -179 -7 -187 -19 -7 -12 -9 -12 -9 2
0 35 20 39 212 39 l188 0 10 -26z m621 16 c17 -9 19 -22 19 -106 0 -61 -4 -93
-10 -89 -5 3 -10 41 -10 84 0 56 -4 82 -14 90 -11 9 -64 11 -186 9 -95 -2
-175 -5 -180 -8 -4 -3 -10 -14 -13 -25 -4 -19 -5 -19 -6 2 -2 48 17 53 205 53
102 0 183 -4 195 -10z m638 -9 c18 -12 28 -151 13 -177 -9 -15 -11 -4 -12 54
0 116 6 112 -180 112 -131 0 -161 -3 -174 -16 -15 -14 -16 -14 -16 2 0 13 -3
14 -15 4 -12 -10 -15 -10 -15 2 0 8 3 18 7 21 10 10 376 8 392 -2z m626 -5
c17 -12 19 -25 17 -97 -2 -101 -12 -119 -12 -23 0 49 -5 77 -17 93 -16 24 -16
24 -162 17 -80 -4 -163 -9 -183 -12 -40 -6 -51 7 -20 25 28 17 354 14 377 -3z
m636 -6 c17 -9 19 -22 19 -100 0 -53 -4 -90 -10 -90 -6 0 -10 33 -10 78 0 47
-5 83 -12 90 -15 15 -252 16 -313 2 -28 -6 -42 -6 -47 3 -6 9 -8 9 -8 0 0 -7
-5 -13 -10 -13 -7 0 -7 6 0 20 10 19 21 20 191 20 105 0 188 -4 200 -10z
m-5823 -33 c7 -7 14 -36 16 -64 l4 -51 -44 -6 c-24 -3 -52 -3 -61 1 -70 24
-72 109 -3 136 21 9 72 -1 88 -16z m512 -12 c33 -83 32 -82 40 -60 4 11 4 28
-1 37 -14 26 -11 48 6 48 8 0 15 -5 15 -10 0 -6 8 -5 20 2 27 17 34 5 17 -29
-8 -15 -11 -36 -8 -46 5 -15 12 -8 31 32 13 28 29 51 37 51 19 0 16 -14 -14
-77 -30 -61 -49 -75 -69 -49 -11 16 -13 16 -22 1 -22 -40 -54 -2 -86 103 -10
32 22 30 34 -3z m750 10 c0 -11 -11 -15 -36 -15 -42 0 -43 -23 -1 -28 37 -4
34 -22 -3 -22 -42 0 -40 -28 3 -32 51 -5 37 -23 -20 -26 l-52 -3 4 68 c3 37 5
69 5 71 0 1 23 2 50 2 38 0 50 -4 50 -15z m630 -11 c9 -10 7 -20 -6 -43 -14
-24 -15 -32 -5 -45 13 -15 7 -36 -9 -36 -12 0 -40 53 -40 75 0 8 7 15 16 15
20 0 13 24 -9 28 -13 3 -17 -8 -19 -55 -2 -44 -7 -58 -18 -58 -12 0 -14 12
-11 65 2 36 5 67 6 70 7 11 84 -2 95 -16z m648 4 c-3 -7 -14 -14 -26 -16 -18
-3 -21 -11 -24 -55 -2 -41 -7 -53 -21 -55 -17 -3 -18 3 -16 55 2 45 0 58 -12
59 -26 2 -30 4 -24 14 10 15 128 13 123 -2z m555 -14 l13 -25 14 25 c7 15 22
26 32 26 23 0 23 -3 -7 -50 -14 -22 -25 -51 -25 -65 0 -18 -5 -25 -20 -25 -16
0 -20 7 -20 33 -1 17 -7 43 -15 57 -8 14 -14 31 -15 38 0 22 29 13 43 -14z
m622 -26 c0 -89 51 -88 57 0 2 34 7 47 18 47 19 0 26 -69 11 -107 -11 -30 -48
-39 -93 -25 -27 9 -28 12 -28 74 0 56 2 64 18 61 13 -3 17 -14 17 -50z m4687
43 c62 -2 86 -62 42 -106 -23 -23 -509 -22 -542 1 -38 26 -23 96 23 106 17 3
368 3 477 -1z m-4004 -68 c-2 -55 -6 -68 -20 -71 -16 -3 -18 5 -18 61 0 66 4
77 27 77 11 0 13 -15 11 -67z m677 34 c22 -32 18 -65 -11 -94 -21 -21 -32 -24
-61 -20 -45 8 -73 33 -73 67 0 35 19 59 55 68 41 11 73 4 90 -21z m619 7 c20
-19 20 -24 0 -52 -8 -12 -26 -22 -40 -22 -18 0 -24 -5 -24 -23 0 -28 -7 -37
-23 -31 -8 3 -11 28 -9 74 l4 70 38 0 c22 0 45 -7 54 -16z m606 7 c0 -5 -10
-7 -22 -3 -20 5 -21 4 -10 -11 8 -9 11 -25 7 -38 -6 -18 -4 -20 14 -14 12 4
21 2 21 -4 0 -6 -16 -11 -35 -11 -39 0 -40 2 -23 30 10 15 10 22 0 32 -19 19
-14 28 18 28 17 0 30 -4 30 -9z m495 -32 l7 -21 15 21 c17 25 33 19 28 -9 -5
-28 10 -25 23 5 15 32 30 32 42 -1 15 -38 12 -45 -11 -32 -17 10 -23 10 -26 1
-7 -20 -43 -16 -43 5 -1 16 -1 16 -11 0 -13 -23 -29 -23 -29 -1 0 15 -2 14
-15 -3 -16 -21 -20 -8 -9 34 8 28 21 28 29 1z m209 6 c8 -21 34 -19 39 3 3 9
5 -1 5 -23 0 -22 -2 -32 -5 -22 -5 21 -43 23 -43 2 0 -8 -5 -15 -11 -15 -6 0
-9 12 -7 27 2 15 -2 28 -9 30 -9 3 -13 -6 -13 -26 0 -17 -4 -31 -10 -31 -5 0
-10 13 -10 29 0 16 -6 32 -12 34 -7 3 6 6 28 6 29 1 44 -4 48 -14z m442 -7 l6
-21 19 24 c10 13 19 22 20 19 0 -3 3 -16 5 -29 7 -37 14 -38 14 -3 0 28 4 32
26 32 14 0 23 -4 19 -10 -4 -6 -11 -8 -16 -5 -5 4 -9 1 -9 -4 0 -6 5 -11 10
-11 6 0 10 -5 10 -11 0 -5 -4 -8 -9 -4 -5 3 -12 1 -16 -5 -3 -5 1 -10 9 -10 9
0 16 -4 16 -10 0 -22 -70 -4 -70 19 -1 11 -5 8 -15 -9 l-14 -25 -10 25 c-7 18
-10 20 -10 8 -1 -10 -6 -18 -12 -18 -7 0 -9 9 -5 23 3 12 6 28 6 35 0 20 18
14 26 -10z m178 0 c12 37 26 25 25 -20 -1 -37 -2 -39 -9 -18 l-8 25 -7 -22
c-8 -26 -25 -31 -25 -8 0 18 -16 20 -23 3 -3 -7 -6 1 -6 18 -1 41 10 50 30 23
l17 -22 6 21z m753 -144 c22 -22 25 -31 19 -71 -3 -25 -6 -63 -6 -85 0 -28 -7
-46 -25 -64 l-25 -25 -171 3 -171 3 -25 29 c-23 27 -25 35 -21 116 2 54 8 93
17 103 12 15 39 17 198 17 l184 0 26 -26z m-6802 -68 c0 -30 -31 -44 -51 -24
-15 14 -15 20 -4 33 18 21 55 15 55 -9z m2975 -33 c0 -42 -3 -54 -11 -46 -11
11 -5 103 7 103 2 0 4 -26 4 -57z m3958 21 c18 -21 22 -35 20 -87 -1 -43 -2
-50 -5 -22 -7 87 -31 125 -78 125 -14 0 -25 5 -25 11 0 19 64 -1 88 -27z
m-6298 -9 l-34 -35 27 0 c15 0 27 -4 27 -10 0 -11 -15 -13 -57 -4 l-30 6 41
39 c51 48 72 52 26 4z m1247 24 c-14 -8 -16 -14 -6 -25 6 -8 17 -14 23 -14 6
0 12 -9 12 -20 0 -16 -7 -20 -37 -20 -43 0 -51 13 -32 58 9 23 19 32 36 32 20
-1 20 -2 4 -11z m1872 -11 c0 -7 -4 -22 -9 -33 -7 -17 -9 -15 -9 13 -1 17 4
32 9 32 6 0 10 -6 9 -12z m31 -18 c0 -16 -4 -30 -10 -30 -5 0 -10 14 -10 30 0
17 5 30 10 30 6 0 10 -13 10 -30z m-1292 -2 c8 -8 15 -8 26 1 23 19 60 10 64
-16 4 -31 -28 -47 -56 -27 -13 9 -23 11 -27 4 -9 -14 -62 -12 -68 3 -12 34 34
62 61 35z m699 0 c9 23 19 12 19 -23 0 -40 -3 -42 -22 -17 -13 16 -13 16 -14
0 0 -10 -5 -18 -11 -18 -7 0 -9 9 -5 23 3 12 6 29 6 37 0 13 1 13 11 0 8 -11
12 -12 16 -2z m119 1 c4 -8 9 -7 15 2 14 24 19 4 7 -29 -15 -40 -24 -40 -31
-2 -5 24 -12 30 -32 30 -28 0 -35 -19 -7 -21 16 -1 16 -2 0 -6 -10 -2 -18 -8
-18 -13 0 -5 8 -11 18 -13 10 -3 6 -5 -10 -6 -24 -1 -28 3 -28 27 0 16 3 32 7
35 11 11 71 8 79 -4z m1411 -28 c-4 -31 -1 -41 12 -46 15 -6 15 -8 -1 -19 -10
-7 -18 -21 -18 -30 0 -9 -7 -16 -15 -16 -8 0 -15 9 -15 20 0 16 -7 20 -30 20
-38 0 -39 17 -2 69 18 28 35 40 51 41 22 0 23 -3 18 -39z m650 27 c-2 -7 -17
-13 -33 -13 -19 0 -30 -6 -32 -17 -3 -13 3 -18 21 -18 36 0 53 -24 39 -55 -17
-36 -89 -49 -100 -17 -3 9 3 11 20 7 16 -4 29 -1 38 10 16 19 5 32 -30 37 -14
1 -24 6 -22 11 1 4 2 21 2 37 0 29 1 30 51 30 36 0 49 -4 46 -12z m607 0 c-4
-7 -16 -25 -26 -41 -22 -31 -21 -72 2 -72 8 0 16 10 18 23 2 12 -1 22 -7 22
-6 0 -11 5 -11 10 0 14 33 13 48 -2 17 -17 15 -38 -5 -60 -36 -40 -113 -6 -98
44 12 40 49 88 68 88 12 0 16 -4 11 -12z m-7076 -110 c14 -14 16 -154 2 -163
-5 -3 -10 26 -12 72 l-3 78 -45 7 c-25 3 -107 7 -182 7 -112 1 -139 -2 -152
-15 -9 -8 -16 -12 -16 -7 0 28 29 33 210 33 131 0 190 -4 198 -12z m630 0 c14
-14 16 -146 2 -168 -7 -10 -10 10 -10 66 0 49 -5 85 -12 92 -8 8 -64 12 -184
12 -179 0 -186 -2 -197 -45 -4 -16 -5 -15 -6 6 0 14 4 30 11 37 17 17 379 17
396 0z m631 -2 c11 -13 7 -163 -4 -175 -3 -2 -5 32 -5 76 0 68 -3 82 -17 88
-23 9 -362 7 -377 -2 -6 -4 -5 1 3 10 12 15 37 17 201 17 149 0 190 -3 199
-14z m622 4 c16 -9 19 -22 19 -96 0 -54 -4 -83 -10 -79 -5 3 -10 36 -10 73 0
37 -4 73 -8 80 -7 9 -52 12 -192 10 l-184 -3 -7 -25 -7 -25 -1 27 c-1 16 6 31
17 37 23 14 357 14 383 1z m637 -13 c8 -6 12 -38 12 -96 0 -59 -3 -81 -10 -71
-5 8 -10 45 -10 83 0 63 -2 68 -26 77 -29 11 -185 12 -291 1 -74 -7 -83 -5
-61 17 15 15 366 5 386 -11z m626 7 c13 -5 16 -24 16 -102 0 -52 -3 -92 -7
-88 -4 4 -6 36 -5 71 5 108 10 105 -196 105 -125 0 -182 -4 -190 -12 -9 -9
-12 -8 -12 4 0 9 6 19 13 21 18 8 362 8 381 1z m643 -16 c15 -12 17 -90 4
-153 -7 -34 -9 -27 -10 46 -1 79 -3 87 -25 98 -34 19 -355 9 -367 -10 -7 -11
-9 -11 -9 3 0 35 29 39 214 33 106 -3 185 -10 193 -17z m633 -7 c11 -22 12
-111 0 -156 -6 -22 -8 -8 -9 51 -1 47 -6 85 -13 92 -8 8 -65 12 -190 12 -176
0 -179 0 -188 -22 -9 -23 -9 -23 -9 3 -1 14 2 29 6 32 3 4 93 7 199 7 181 0
194 -1 204 -19z m630 4 c6 -3 9 -48 9 -98 l-2 -92 -7 79 c-6 59 -13 83 -26 93
-14 10 -56 12 -188 7 -94 -3 -174 -8 -178 -11 -13 -7 -9 12 5 26 9 11 51 12
195 8 100 -4 187 -9 192 -12z m-4193 -42 c-3 -10 -5 -4 -5 12 0 17 2 24 5 18
2 -7 2 -21 0 -30z m-1006 -28 c32 -84 32 -85 10 -85 -11 0 -22 9 -26 20 -9 27
-49 26 -67 -2 -9 -13 -20 -19 -30 -15 -14 5 -11 15 19 72 44 83 66 85 94 10z
m627 38 c2 -8 -6 -13 -22 -13 -33 0 -33 -10 -1 -40 39 -37 30 -64 -22 -68 -34
-2 -43 0 -43 13 0 11 6 14 25 9 31 -8 35 20 6 36 -30 15 -37 51 -15 67 22 16
66 13 72 -4z m650 -25 c10 -22 10 -33 -2 -61 -12 -30 -20 -35 -60 -41 -25 -4
-50 -4 -56 -1 -10 6 -15 127 -6 136 3 3 29 2 58 -1 45 -4 55 -9 66 -32z m622
17 c0 -10 -10 -15 -30 -15 -34 0 -41 -17 -8 -22 31 -4 35 -28 4 -28 -20 0 -25
-6 -28 -27 -2 -17 -10 -29 -20 -31 -16 -3 -18 5 -18 67 l0 71 50 0 c38 0 50
-4 50 -15z m618 9 c34 -10 28 -31 -8 -26 -17 2 -37 -1 -45 -8 -18 -15 -20 -51
-3 -68 17 -17 48 -15 48 3 0 8 -4 15 -10 15 -5 0 -10 7 -10 16 0 11 8 14 28
12 24 -3 27 -6 24 -38 -2 -19 -7 -39 -12 -44 -15 -15 -99 3 -110 24 -19 35
-12 77 16 99 28 22 44 25 82 15z m562 -29 c0 -21 5 -25 29 -25 23 0 30 5 33
22 2 13 11 24 21 26 17 3 18 -3 15 -65 -3 -54 -7 -69 -21 -71 -13 -3 -17 4
-17 27 0 28 -3 31 -30 31 -27 0 -30 -3 -30 -30 0 -23 -4 -30 -20 -30 -22 0
-24 15 -14 94 7 49 34 66 34 21z m5145 13 c26 -12 40 -42 33 -74 -5 -27 -52
-57 -77 -49 -68 21 -68 103 -1 128 8 3 16 6 17 6 1 1 14 -4 28 -11z m-4444
-58 c-3 -66 -15 -82 -54 -78 -38 4 -49 28 -13 28 21 0 26 5 28 28 1 24 4 49 7
75 1 5 9 7 18 5 14 -3 17 -13 14 -58z m581 30 l-3 -24 29 27 c26 25 52 35 52
21 0 -3 -9 -19 -21 -35 l-20 -29 20 -29 c26 -36 26 -41 2 -41 -11 0 -28 15
-40 33 l-21 32 0 -32 c0 -26 -4 -33 -20 -33 -19 0 -20 5 -16 68 3 37 5 68 6
70 0 2 8 2 18 0 11 -3 16 -12 14 -28z m653 -35 l-6 -55 30 0 c21 0 31 -5 31
-15 0 -11 -12 -15 -44 -15 -25 0 -47 3 -49 8 -2 4 -2 35 1 70 4 54 7 62 24 62
19 0 20 -4 13 -55z m-4638 23 c-3 -8 -6 -5 -6 6 -1 11 2 17 5 13 3 -3 4 -12 1
-19z m5533 -80 c-24 -10 -24 -10 -5 -18 17 -7 17 -9 3 -9 -10 -1 -18 -5 -18
-10 0 -5 8 -12 18 -14 10 -3 5 -5 -12 -6 -22 -1 -27 3 -22 15 3 9 6 24 6 35 0
14 7 19 28 18 l27 0 -25 -11z m68 5 c-21 -5 -24 -23 -5 -24 10 0 10 -2 0 -6
-18 -7 -16 -21 5 -26 10 -3 6 -5 -10 -6 -24 -1 -28 3 -28 27 0 34 7 42 34 41
17 -1 18 -2 4 -6z m394 -5 c-28 -14 -25 -42 5 -46 16 -2 26 5 38 27 20 40 31
39 45 -5 12 -35 6 -62 -6 -30 -8 20 -28 21 -44 1 -19 -23 -79 -3 -80 27 0 13
32 38 48 37 13 0 11 -3 -6 -11z m148 0 c0 -4 -4 -8 -10 -8 -5 0 -9 -3 -9 -7 4
-24 -2 -53 -10 -49 -4 3 -6 17 -3 31 2 15 0 25 -7 25 -6 0 -11 4 -11 10 0 5
11 9 25 8 14 -1 25 -6 25 -10z m53 5 c3 -5 8 -24 11 -43 5 -28 5 -31 -4 -17
-6 9 -16 17 -22 17 -6 0 -17 -8 -24 -17 -20 -27 -18 3 3 38 17 29 28 35 36 22z
m58 -53 c5 0 9 -4 9 -10 0 -5 -9 -10 -20 -10 -16 0 -20 7 -20 33 0 44 14 58
18 18 2 -17 7 -31 13 -31z m92 40 c13 -19 13 -19 30 0 18 22 42 26 52 10 4 -6
-5 -10 -19 -10 -19 0 -26 -5 -26 -19 0 -10 7 -21 15 -25 10 -4 15 1 15 14 0
11 5 20 11 20 6 0 9 -10 7 -22 -4 -28 -34 -35 -57 -14 -17 15 -19 15 -31 1
-16 -20 -49 -16 -64 7 -8 13 -6 22 8 37 24 26 41 27 59 1z m312 10 c3 -5 -3
-10 -14 -10 -29 0 -28 -38 2 -50 15 -6 17 -9 5 -9 -31 -2 -48 11 -48 35 0 31
41 57 55 34z m222 -1 c43 0 53 -3 58 -20 9 -27 -13 -51 -44 -47 -20 2 -27 9
-29 31 -5 38 -32 36 -32 -4 0 -16 -4 -28 -9 -25 -4 3 -6 17 -3 31 4 22 1 25
-22 25 -28 0 -33 -9 -15 -27 14 -14 3 -33 -19 -33 -13 0 -14 2 -4 9 12 7 12
12 0 30 -16 27 -1 40 40 34 15 -2 50 -3 79 -4z m-190 -18 c-2 -10 -1 -24 3
-31 11 -18 30 -2 30 26 0 13 5 24 11 24 16 0 6 -52 -12 -63 -26 -16 -49 -1
-49 33 0 16 5 30 11 30 6 0 9 -9 6 -19z m293 4 c0 -8 4 -15 9 -15 5 0 11 7 15
15 10 28 26 15 26 -21 0 -21 -4 -33 -10 -29 -6 4 -8 11 -5 16 4 5 2 9 -3 9 -6
0 -13 -8 -17 -17 -6 -17 -7 -17 -17 2 -11 19 -11 19 -19 0 -6 -15 -8 -11 -8
18 -1 26 3 37 14 37 8 0 15 -7 15 -15z m373 3 c-29 -14 -29 -36 -1 -47 14 -5
17 -10 10 -15 -6 -4 -21 3 -32 14 -16 16 -18 24 -10 40 6 11 21 20 33 19 l22
0 -22 -11z m68 -18 c10 0 19 7 19 15 0 8 4 15 10 15 5 0 7 -13 4 -30 -4 -16
-4 -30 -1 -30 4 0 13 14 22 30 19 37 32 38 47 3 l12 -28 4 28 c2 21 9 27 27
27 27 0 43 -19 26 -29 -6 -4 -9 -15 -5 -24 7 -19 -11 -23 -20 -4 -5 10 -7 10
-12 0 -7 -15 -44 -17 -44 -3 0 6 -7 10 -15 10 -8 0 -15 -4 -15 -10 0 -16 -37
-12 -44 5 -3 8 -12 15 -21 15 -8 0 -15 -7 -15 -15 0 -8 -4 -15 -10 -15 -12 0
-12 15 -3 50 6 19 8 21 11 8 2 -10 12 -18 23 -18z m395 -115 c-4 -18 -17 -41
-29 -53 -25 -24 -95 -44 -83 -24 4 7 16 12 27 12 11 0 31 11 44 25 20 19 25
34 25 73 0 27 3 52 8 56 10 11 15 -50 8 -89z m-8034 4 c-29 -11 -26 -43 4 -47
16 -2 25 5 34 27 15 37 37 40 46 6 8 -32 24 -33 24 -1 0 22 4 24 51 24 32 0
46 -3 38 -9 -11 -6 -11 -11 -1 -21 21 -21 14 -38 -15 -37 -17 1 -21 3 -10 6
20 5 22 14 6 30 -13 13 -59 -6 -59 -24 0 -18 -28 -16 -47 2 -14 14 -16 14 -27
0 -16 -22 -70 -16 -74 8 -6 29 6 47 30 46 l23 0 -23 -10z m2629 -40 c-22 -37
-29 -20 -11 27 7 19 14 24 21 17 7 -7 4 -21 -10 -44z m1269 41 c0 -5 -4 -10
-10 -10 -5 0 -10 5 -10 10 0 6 5 10 10 10 6 0 10 -4 10 -10z m3968 -6 c20 -14
22 -23 22 -110 0 -87 -2 -97 -25 -119 -24 -25 -27 -25 -195 -25 -168 0 -171 0
-195 25 -23 22 -25 32 -25 119 0 129 -6 126 220 126 143 0 180 -3 198 -16z
m-3354 -15 c-3 -5 -10 -7 -15 -3 -5 3 -7 10 -3 15 3 5 10 7 15 3 5 -3 7 -10 3
-15z m442 -24 c8 -32 24 -33 24 -1 0 23 2 24 88 22 72 -1 86 -4 83 -16 -2 -8
-3 -23 -3 -32 0 -10 -3 -18 -8 -18 -4 0 -11 8 -15 18 -7 16 -8 15 -15 -3 -8
-19 -9 -18 -9 4 -1 17 -5 22 -17 17 -9 -3 -20 -6 -25 -6 -5 0 -9 -7 -9 -15 0
-8 -5 -15 -10 -15 -6 0 -10 6 -8 13 3 13 -3 17 -27 17 -8 0 -15 -7 -15 -15 0
-8 -9 -15 -20 -15 -11 0 -20 5 -20 10 0 6 -9 10 -20 10 -11 0 -20 -4 -20 -10
0 -5 -4 -10 -9 -10 -9 0 0 24 22 58 13 19 26 14 33 -13z m279 -10 c0 -28 -3
-30 -35 -30 -25 0 -36 5 -38 18 -5 27 18 48 47 45 22 -2 26 -8 26 -33z m35 23
c0 -9 3 -9 12 0 19 19 30 14 18 -7 -5 -11 -7 -28 -3 -38 6 -15 4 -16 -8 -6
-10 8 -19 9 -25 3 -7 -7 -10 1 -10 25 1 19 4 35 9 35 4 0 7 -5 7 -12z m-1380
-19 c-7 -11 -14 -18 -17 -15 -8 8 5 36 17 36 7 0 7 -6 0 -21z m1515 11 c15 -7
10 -9 -23 -9 -26 -1 -41 3 -37 9 7 12 32 12 60 0z m-895 -20 c0 -5 -5 -10 -11
-10 -5 0 -7 5 -4 10 3 6 8 10 11 10 2 0 4 -4 4 -10z m909 -16 c2 -2 2 -6 -1
-9 -8 -9 -68 7 -62 16 5 8 52 2 63 -7z m361 -104 c0 -65 -2 -70 -21 -70 -20 0
-21 4 -16 49 4 33 2 51 -5 53 -19 7 0 38 22 38 18 0 20 -6 20 -70z m659 51 c8
-15 4 -27 -19 -60 -17 -22 -30 -42 -30 -45 0 -2 11 -1 25 2 18 3 25 0 25 -12
0 -13 -11 -16 -50 -16 -30 0 -50 4 -50 11 0 6 16 29 36 51 39 44 40 64 0 61
-17 -1 -26 3 -26 13 0 23 77 19 89 -5z m635 -3 c8 -13 8 -23 0 -35 -8 -13 -8
-23 0 -35 18 -30 -4 -53 -53 -53 -22 0 -41 5 -41 10 1 6 10 9 21 7 23 -4 52
16 43 29 -3 5 -14 9 -25 9 -10 0 -19 7 -19 15 0 8 9 15 20 15 11 0 20 7 20 15
0 9 -9 15 -25 15 -16 0 -25 6 -25 16 0 22 69 15 84 -8z m-7529 3 c4 -8 -38
-11 -134 -11 -102 0 -141 -3 -144 -12 -4 -8 -6 -7 -6 4 -1 9 5 18 12 21 28 9
265 8 272 -2z m114 -5 c7 -4 11 -37 10 -84 -1 -79 -16 -69 -18 12 -1 44 -21
65 -64 66 -16 0 -26 4 -23 8 6 10 79 8 95 -2z m626 -7 c9 -9 8 -159 -1 -168
-2 -2 -4 20 -4 51 0 30 -5 68 -10 84 l-10 30 -173 -1 c-94 0 -180 -4 -191 -9
-14 -7 -18 -6 -14 5 3 8 23 16 49 19 70 8 343 -1 354 -11z m623 6 c8 -3 12
-30 10 -92 l-1 -88 -6 73 c-5 57 -10 77 -25 88 -26 19 -345 21 -364 2 -9 -9
-12 -9 -12 0 0 7 9 16 19 20 20 7 356 4 379 -3z m638 -95 l1 -95 -6 76 c-3 42
-12 83 -20 93 -11 14 -37 16 -170 16 -116 0 -163 -4 -183 -14 -23 -12 -28 -12
-28 -1 0 7 6 16 13 18 6 3 98 5 202 4 l190 -2 1 -95z m629 77 c3 -12 4 -56 2
-97 l-3 -75 -2 76 c-1 53 -7 80 -17 89 -20 17 -366 15 -377 -3 -4 -7 -8 -7 -8
-1 0 30 26 34 212 34 187 0 188 0 193 -23z m627 7 c5 -3 7 -47 6 -97 l-2 -92
-3 75 c-6 116 -2 114 -213 106 -119 -5 -177 -11 -183 -19 -5 -8 -7 -5 -5 8 2
14 14 22 38 26 39 6 350 0 362 -7z m626 -6 c8 -8 12 -43 11 -97 l-2 -86 -8 75
c-5 41 -15 80 -23 88 -11 11 -49 14 -176 13 -89 -1 -171 -6 -181 -12 -21 -11
-22 -9 -13 15 5 14 32 16 193 16 132 0 191 -4 199 -12z m631 -2 c7 -5 10 -42
9 -104 l-1 -97 -6 88 c-4 62 -10 91 -21 98 -20 14 -348 3 -366 -12 -11 -9 -14
-8 -14 4 0 33 31 38 211 34 97 -3 182 -7 188 -11z m-4435 -16 c6 -6 12 -41 14
-78 5 -103 5 -104 -169 -107 -190 -4 -191 -3 -187 108 l3 82 135 6 c148 6 189
4 204 -11z m5074 8 c13 -13 15 -90 3 -158 -8 -40 -9 -35 -10 41 -1 64 -5 90
-16 99 -11 9 -57 12 -162 10 -187 -3 -195 -3 -210 -13 -16 -10 -17 5 -1 21 17
17 379 17 396 0z m623 -7 l24 -19 0 -306 c0 -302 -1 -305 -23 -329 -52 -55
-224 -75 -323 -38 -95 37 -89 13 -89 358 l0 304 25 24 c24 25 27 25 193 25
152 0 172 -2 193 -19z m-5171 -27 c0 -9 -13 -33 -30 -54 -16 -21 -30 -40 -30
-42 0 -2 12 -4 27 -3 14 0 28 -6 30 -12 5 -15 -102 -19 -111 -4 -3 5 10 28 29
52 l35 44 -30 3 c-18 2 -30 9 -30 18 0 10 14 14 55 14 44 0 55 -3 55 -16z
m559 -6 c18 -18 21 -19 26 -5 4 8 13 18 22 21 28 11 33 -5 11 -34 -19 -27 -20
-32 -8 -57 8 -16 16 -31 18 -35 9 -19 -39 -6 -49 13 l-11 21 -14 -21 c-9 -12
-24 -21 -36 -21 -19 0 -19 2 6 35 l27 35 -20 29 c-30 42 -8 58 28 19z m701 7
c0 -9 -9 -15 -24 -15 -65 0 -75 -83 -10 -85 43 -2 42 -25 -1 -25 -47 0 -71 13
-79 45 -8 30 16 82 41 88 40 11 73 7 73 -8z m550 -40 c7 -25 15 -45 19 -45 3
0 14 20 24 45 13 31 25 45 38 45 25 0 24 -4 -14 -75 -44 -83 -67 -85 -91 -8
-10 32 -21 64 -23 71 -3 7 3 12 15 12 15 0 23 -11 32 -45z m707 -28 c2 -53 0
-59 -23 -67 -14 -6 -39 -10 -55 -10 l-29 0 0 71 0 70 53 -3 52 -3 2 -58z m583
16 l25 -48 3 48 c2 33 7 47 18 47 11 0 14 -16 14 -70 0 -66 -1 -70 -23 -70
-21 0 -34 14 -64 70 -12 24 -13 24 -13 -18 0 -29 -5 -44 -15 -49 -9 -3 -18 -4
-20 -2 -2 2 -1 34 2 72 5 60 8 67 27 67 15 0 28 -14 46 -47z m615 -5 l7 -43
19 43 c15 35 23 43 41 40 13 -2 23 -9 22 -15 -1 -7 -2 -38 -2 -68 -2 -42 -6
-55 -17 -55 -10 0 -15 11 -16 38 l-1 37 -15 -38 c-20 -48 -44 -45 -59 8 l-12
40 -3 -40 c-3 -27 -9 -40 -19 -40 -8 0 -15 6 -14 13 1 6 2 37 3 67 1 54 2 55
30 55 26 0 29 -4 36 -42z m683 20 c17 -17 15 -59 -4 -86 -17 -24 -53 -29 -72
-10 -17 17 -15 74 4 92 18 19 55 21 72 4z m-4031 -50 c-3 -8 -6 -5 -6 6 -1 11
2 17 5 13 3 -3 4 -12 1 -19z m5278 -138 c-3 -5 -14 -10 -23 -10 -13 0 -12 -5
8 -20 28 -22 15 -26 -25 -8 -31 14 -32 26 -2 38 30 12 49 12 42 0z m614 -1
c18 -6 30 -16 28 -22 -4 -14 -67 -40 -67 -28 0 5 12 14 28 19 l27 10 -27 11
c-16 6 -28 13 -28 16 0 7 3 7 39 -6z m573 -16 l12 -28 4 28 c4 31 28 36 37 7
8 -27 23 -25 28 3 3 13 5 8 6 -15 1 -43 -23 -54 -35 -15 l-7 22 -10 -22 c-12
-27 -32 -30 -46 -6 -9 17 -11 16 -30 -1 -25 -23 -26 -16 -6 24 19 37 32 38 47
3z m130 20 c-10 -4 -10 -9 3 -23 20 -23 12 -40 -18 -39 -17 1 -18 2 -4 6 18 5
24 23 7 23 -5 0 -10 9 -10 20 0 13 6 20 18 19 11 0 12 -2 4 -6z m436 0 c-21
-5 -23 -19 -5 -26 7 -3 5 -6 -5 -6 -22 -1 -24 -21 -3 -21 8 0 15 -4 15 -9 0
-5 -9 -7 -20 -4 -15 4 -20 14 -20 39 0 31 3 34 28 33 16 -1 20 -3 10 -6z m76
-33 c3 0 6 9 6 20 0 19 5 20 81 18 44 -2 83 -7 86 -11 3 -4 11 -3 19 4 9 7 14
8 14 1 0 -6 -4 -14 -10 -17 -5 -3 -10 -15 -10 -26 0 -10 -4 -19 -10 -19 -5 0
-10 8 -10 18 0 10 -3 22 -7 25 -10 11 -32 -13 -26 -29 3 -8 0 -14 -6 -14 -6 0
-11 6 -12 13 0 10 -2 10 -6 0 -9 -24 -23 -13 -23 17 0 30 -19 43 -21 15 -3
-35 -4 -38 -14 -42 -6 -2 -11 7 -10 19 0 32 -19 34 -23 3 -4 -28 -26 -34 -36
-9 -3 8 -10 12 -16 9 -6 -4 -8 -11 -5 -16 4 -5 1 -9 -4 -9 -12 0 -15 53 -4 64
4 4 15 -2 24 -13 10 -12 20 -21 23 -21z m-8185 -17 c10 -17 10 -17 11 0 0 12
8 17 28 17 21 0 24 -2 12 -10 -13 -9 -13 -11 0 -20 13 -8 12 -10 -2 -10 -10 0
-18 -7 -18 -15 0 -8 -4 -15 -10 -15 -5 0 -10 5 -10 12 0 7 -7 5 -18 -5 -14
-13 -22 -14 -41 -4 -31 15 -36 31 -16 51 21 21 51 20 64 -1z m109 10 c-10 -2
-18 -9 -18 -14 0 -5 8 -10 18 -10 16 -1 16 -2 0 -6 -10 -2 -18 -11 -18 -19 0
-8 -4 -14 -10 -14 -11 0 -14 53 -3 63 3 4 16 6 27 6 17 -1 18 -2 4 -6z m1768
-25 c-3 -13 -6 -29 -6 -37 0 -11 -3 -11 -15 -1 -10 9 -15 9 -15 1 0 -6 -4 -11
-10 -11 -5 0 -10 16 -10 35 0 33 2 35 31 35 28 0 31 -3 25 -22z m54 15 c-34
-13 -38 -40 -7 -53 l22 -9 -22 0 c-12 -1 -26 7 -32 16 -13 24 4 53 32 52 15 0
17 -2 7 -6z m58 -57 c9 -2 6 -4 -8 -3 -19 2 -25 8 -26 27 -1 38 11 49 14 13 2
-19 10 -34 20 -37z m2882 9 c0 -19 -4 -35 -10 -35 -11 0 -14 53 -3 63 11 12
13 8 13 -28z m45 15 c3 -11 11 -20 17 -20 5 0 8 7 5 15 -4 8 -2 17 3 20 6 4
10 -9 10 -29 0 -41 -24 -50 -36 -14 l-7 23 -10 -25 -10 -25 -5 23 c-7 46 20
73 33 32z m77 13 c-10 -4 -10 -10 2 -28 17 -26 12 -35 -18 -34 -20 0 -20 1 -2
8 14 5 16 10 8 15 -19 11 -15 46 6 45 11 0 12 -2 4 -6z m162 -15 c15 -25 -3
-52 -38 -56 -24 -3 -26 0 -26 31 0 18 3 37 7 41 12 12 45 2 57 -16z m66 12 c0
-5 -8 -10 -17 -10 -16 0 -16 -2 -3 -11 11 -8 12 -12 3 -16 -18 -7 -16 -24 2
-17 8 4 15 1 15 -5 0 -6 -11 -11 -25 -11 -22 0 -25 4 -25 33 0 19 3 37 7 40
10 11 43 8 43 -3z m46 -50 c8 0 14 -5 14 -11 0 -6 -10 -9 -22 -7 -25 3 -36 37
-22 66 6 13 9 9 12 -15 2 -20 9 -33 18 -33z m3152 -36 c20 -23 22 -35 22 -151
l0 -125 -33 -33 c-40 -40 -100 -50 -238 -43 -150 9 -173 41 -165 225 6 133 14
150 80 155 22 2 102 2 176 0 130 -3 136 -4 158 -28z m-8200 -26 c13 -13 17
-148 5 -148 -5 0 -9 26 -11 57 -1 32 -7 62 -12 67 -14 14 -174 25 -277 19 -67
-4 -93 -3 -93 5 0 17 371 17 388 0z m633 -5 c4 -4 4 -48 0 -98 l-8 -90 -2 76
c-1 58 -5 80 -18 90 -12 11 -57 14 -187 14 l-170 0 -13 -25 c-11 -22 -13 -22
-13 -5 0 27 11 42 35 48 32 8 367 -1 376 -10z m628 4 c12 -15 12 -167 0 -167
-5 0 -9 31 -9 69 0 49 -4 72 -15 81 -18 15 -351 19 -364 4 -5 -5 -11 -18 -14
-29 -4 -16 -5 -15 -6 6 -2 47 10 50 211 49 132 -1 190 -5 197 -13z m626 -11
c6 -8 8 -49 6 -97 l-5 -84 -6 79 c-9 110 -6 108 -210 105 -92 -2 -171 -8 -179
-14 -11 -8 -13 -6 -9 5 7 22 63 27 238 22 108 -3 158 -8 165 -16z m1153 10
c533 -4 727 -8 738 -17 14 -12 18 -67 8 -107 -6 -23 -7 -22 -26 8 -10 18 -24
30 -31 27 -7 -2 -109 -1 -227 4 -252 10 -271 10 -330 6 -25 -2 -97 0 -160 3
-78 5 -117 3 -122 -4 -5 -8 -13 -7 -28 1 -30 20 -214 19 -278 0 -34 -10 -61
-13 -75 -8 -12 5 -36 6 -54 4 -17 -3 -49 1 -70 8 -41 13 -68 17 -185 24 l-77
4 -4 -27 c-3 -19 -4 -16 -5 13 -3 67 8 72 133 68 39 -1 396 -4 793 -7z m1364
-23 c12 -15 14 -35 8 -103 l-7 -85 -1 81 c-2 57 -6 85 -16 93 -22 19 -352 13
-372 -6 -12 -13 -14 -12 -14 5 0 10 3 22 7 25 3 4 90 7 193 7 166 0 189 -2
202 -17z m-3815 -14 c17 -15 18 -150 1 -167 -8 -8 -59 -12 -164 -12 -184 0
-184 0 -184 100 0 100 6 103 189 95 82 -3 150 -10 158 -16z m625 4 c13 -12 18
-31 18 -75 0 -100 4 -98 -180 -98 -185 0 -180 -3 -180 104 0 51 4 67 18 75 9
6 82 11 161 11 121 0 147 -3 163 -17z m3823 0 c14 -14 16 -30 11 -96 -7 -103
-16 -111 -16 -14 0 109 4 107 -200 107 -140 0 -171 -3 -184 -16 -13 -12 -16
-12 -16 -2 0 34 22 38 206 38 157 0 185 -2 199 -17z m1081 -11 c37 -24 43 -87
13 -126 -38 -49 -89 -22 -89 49 0 59 41 101 76 77z m-3868 -19 c-10 -2 -26 -2
-35 0 -10 3 -2 5 17 5 19 0 27 -2 18 -5z m-2456 -27 c6 -8 8 -7 8 2 0 21 38
13 46 -10 l7 -23 8 23 c13 35 29 26 29 -17 0 -49 -17 -62 -40 -31 l-17 23 -7
-24 c-6 -21 -8 -22 -18 -7 -10 14 -14 14 -34 1 -27 -18 -59 -5 -70 29 -13 44
63 73 88 34z m2032 -1 c22 -33 20 -48 -7 -73 l-22 -21 0 59 c0 33 3 60 6 60 4
0 14 -11 23 -25z m881 15 c-3 -5 -10 -10 -16 -10 -5 0 -9 5 -9 10 0 6 7 10 16
10 8 0 12 -4 9 -10z m4585 -22 c-5 -17 -7 -42 -4 -55 7 -26 -10 -32 -20 -7 -8
22 -8 39 4 68 14 38 31 33 20 -6z m180 -13 c0 -36 -8 -65 -19 -65 -5 0 -6 79
-1 108 0 2 5 0 10 -3 6 -3 10 -21 10 -40z m-5814 23 c3 -4 15 -3 25 2 37 20
79 -22 59 -60 -8 -14 -21 -20 -46 -20 -30 0 -35 4 -40 30 -4 17 -10 30 -15 30
-5 0 -9 -13 -9 -30 0 -21 -5 -30 -16 -30 -13 0 -15 7 -10 30 5 27 3 30 -21 30
-24 0 -25 -1 -11 -17 9 -10 13 -24 11 -30 -5 -15 -53 -18 -53 -3 0 6 7 10 17
10 15 0 15 1 0 18 -20 22 -22 39 -5 44 20 7 106 3 114 -4z m2624 -23 c0 -12
-15 -15 -75 -15 -69 0 -86 6 -68 23 3 4 37 7 75 7 54 0 68 -3 68 -15z m2470
-16 c0 -26 -3 -30 -22 -27 -17 2 -24 11 -26 31 -3 23 0 27 22 27 22 0 26 -4
26 -31z m-1935 1 c-3 -5 23 -10 57 -12 81 -4 82 -22 1 -26 -52 -2 -61 -6 -56
-19 3 -9 2 -14 -3 -12 -73 34 -79 45 -36 70 27 16 47 15 37 -1z m2615 5 c0
-12 -13 -15 -60 -15 -47 0 -60 3 -60 15 0 12 13 15 60 15 47 0 60 -3 60 -15z
m-3150 -50 c0 -12 -15 -15 -75 -15 -60 0 -75 3 -75 15 0 12 15 15 75 15 60 0
75 -3 75 -15z m-4270 -5 c0 -5 -4 -10 -10 -10 -5 0 -10 5 -10 10 0 6 5 10 10
10 6 0 10 -4 10 -10z"/>
<path d="M1397 8023 c-4 -3 -7 -21 -7 -40 0 -29 -3 -33 -25 -33 -14 0 -25 -6
-25 -12 1 -23 39 -60 57 -56 11 2 26 -8 38 -27 25 -37 55 -45 55 -16 0 12 12
28 28 38 15 9 29 18 30 19 2 2 1 21 -3 43 -6 35 -10 41 -32 41 -19 0 -23 -4
-18 -19 3 -11 0 -23 -6 -27 -9 -5 -11 2 -6 29 3 21 2 37 -4 37 -5 0 -9 -8 -10
-17 0 -11 -6 -5 -15 15 -13 30 -40 42 -57 25z m63 -71 c0 -13 -12 -22 -22 -16
-10 6 -1 24 13 24 5 0 9 -4 9 -8z m5 -52 c17 14 32 -7 17 -22 -16 -16 -42 -1
-41 24 1 18 2 19 6 5 4 -14 8 -15 18 -7z"/>
<path d="M6103 7983 c42 -7 43 -28 2 -78 l-37 -45 43 2 c37 1 39 2 12 5 l-33
4 30 32 c20 21 30 40 28 57 -3 21 -9 25 -38 26 -27 2 -29 1 -7 -3z"/>
<path d="M6177 7972 c-10 -10 -17 -35 -17 -55 0 -28 6 -40 26 -54 26 -16 27
-16 45 6 49 61 -3 159 -54 103z m56 -22 c12 -34 -7 -80 -32 -80 -24 0 -32 31
-19 76 11 41 38 43 51 4z"/>
<path d="M6276 7968 c-30 -43 -13 -108 27 -108 34 0 47 19 47 65 0 64 -42 88
-74 43z m56 -13 c15 -34 0 -80 -27 -80 -15 0 -21 8 -23 29 -8 68 26 103 50 51z"/>
<path d="M1604 7969 c-4 -7 2 -9 17 -7 23 3 24 0 24 -49 -1 -36 3 -53 12 -53
7 0 13 19 15 53 2 28 8 51 13 50 11 -3 12 -7 14 -63 l1 -40 48 0 c26 0 54 6
61 13 11 10 14 10 18 0 6 -15 53 -18 53 -3 0 13 33 13 47 -1 5 -5 30 -9 54 -7
36 2 45 7 47 25 2 14 -3 23 -17 28 -12 3 -21 11 -21 16 0 6 9 7 20 4 11 -4 20
-2 20 4 0 6 -13 11 -29 11 -44 0 -50 -38 -8 -53 28 -10 20 -26 -13 -24 -24 2
-33 9 -45 40 -19 46 -32 47 -51 2 -15 -38 -25 -43 -42 -22 -9 10 -7 19 4 35
16 24 6 30 -15 10 -11 -10 -14 -10 -18 0 -3 6 -12 12 -20 12 -14 0 -14 -2 0
-23 20 -30 3 -54 -37 -53 -33 1 -49 26 -17 26 12 0 21 5 21 10 0 6 -9 10 -20
10 -27 0 -25 18 3 23 19 4 18 4 -5 6 -18 0 -28 7 -28 16 0 11 -12 15 -49 15
-28 0 -53 -5 -57 -11z"/>
<path d="M2100 7920 c0 -41 4 -60 13 -60 8 0 12 19 12 60 0 41 -4 60 -12 60
-9 0 -13 -19 -13 -60z"/>
<path d="M5920 7967 c-37 -19 -41 -80 -6 -102 28 -19 67 -17 74 4 3 10 -1 12
-15 9 -22 -6 -53 7 -53 22 0 6 18 10 40 10 33 0 40 3 40 19 0 11 -10 27 -22
35 -27 19 -26 19 -58 3z m50 -27 c0 -5 -12 -10 -26 -10 -14 0 -23 4 -19 10 3
6 15 10 26 10 10 0 19 -4 19 -10z"/>
<path d="M5218 7965 c-3 -3 4 -30 15 -60 26 -71 47 -73 76 -6 25 58 26 71 8
71 -8 0 -20 -18 -27 -40 -15 -46 -25 -44 -34 5 -6 31 -23 45 -38 30z"/>
<path d="M5360 7950 c-11 -11 -20 -29 -20 -40 0 -50 79 -79 113 -42 55 61 -35
140 -93 82z m68 -12 c27 -27 2 -75 -32 -62 -19 7 -22 60 -3 67 19 8 22 8 35
-5z"/>
<path d="M5480 7967 c0 -3 10 -30 21 -61 18 -45 19 -59 9 -71 -7 -8 -19 -15
-26 -15 -8 0 -14 -4 -14 -10 0 -5 14 -10 31 -10 28 0 33 5 65 76 38 84 40 94
20 94 -8 0 -22 -19 -31 -42 l-18 -43 -11 40 c-7 24 -19 41 -29 43 -9 2 -17 1
-17 -1z"/>
<path d="M5626 7961 c-4 -6 10 -11 31 -13 l38 -3 -40 -20 c-41 -21 -57 -51
-33 -66 18 -12 48 -11 48 1 0 6 -7 10 -15 10 -8 0 -15 7 -15 15 0 8 4 15 9 15
5 0 16 3 25 6 13 5 16 -1 16 -26 0 -21 4 -30 13 -27 7 2 12 23 12 58 l0 54
-42 3 c-22 2 -44 -1 -47 -7z"/>
<path d="M5757 7952 c-40 -44 3 -119 52 -92 17 8 21 8 21 -3 0 -24 -26 -38
-55 -31 -21 5 -27 4 -23 -7 6 -19 81 -24 95 -7 6 7 12 45 14 83 l4 70 -46 3
c-34 2 -49 -2 -62 -16z m71 -34 c-2 -25 -8 -34 -24 -36 -13 -2 -24 4 -28 13
-9 24 11 55 35 55 17 0 20 -5 17 -32z"/>
<path d="M2150 7903 c3 -34 5 -40 8 -20 4 32 17 35 32 7 19 -35 40 -24 40 20
0 22 -4 40 -10 40 -5 0 -10 -10 -10 -22 l0 -21 -23 21 c-35 33 -43 27 -37 -25z"/>
<path d="M2246 7943 c-13 -14 -5 -34 19 -45 28 -13 23 -32 -6 -23 -11 4 -19 2
-19 -5 0 -7 13 -10 33 -8 24 2 33 8 35 25 3 17 -3 24 -22 29 -39 10 -31 22 14
20 39 -1 40 -1 40 -38 0 -28 4 -38 16 -38 12 0 15 9 12 37 -2 28 1 37 15 39
14 2 17 -5 17 -37 0 -29 4 -39 16 -39 10 0 14 6 11 15 -9 23 8 26 26 4 22 -26
41 -26 27 0 -5 11 -9 30 -7 43 2 23 1 23 -109 25 -62 1 -115 -1 -118 -4z m206
-18 c0 -5 -5 -11 -11 -13 -6 -2 -11 4 -11 13 0 9 5 15 11 13 6 -2 11 -8 11
-13z"/>
<path d="M2490 7916 c0 -39 19 -59 52 -54 19 2 24 11 29 46 3 23 2 42 -3 42
-4 0 -8 -15 -8 -34 0 -19 -5 -38 -10 -41 -19 -12 -42 17 -38 47 3 19 0 28 -9
28 -8 0 -13 -12 -13 -34z"/>
<path d="M2590 7905 c0 -45 19 -66 21 -22 l0 22 11 -22 c6 -13 14 -23 18 -23
4 0 11 10 15 23 l8 22 4 -22 c8 -40 23 -25 23 22 0 51 -10 57 -30 19 l-14 -25
-19 25 c-27 37 -37 32 -37 -19z"/>
<path d="M2718 7905 l-3 -45 37 0 c21 0 38 4 38 9 0 4 -11 6 -25 3 -18 -3 -25
0 -25 12 0 9 8 16 21 16 11 0 18 4 14 10 -3 5 -12 7 -20 3 -10 -3 -15 1 -15
12 0 12 6 16 20 12 11 -3 20 -1 20 4 0 5 -13 9 -29 9 -27 0 -29 -3 -33 -45z"/>
<path d="M2800 7905 c0 -25 4 -45 9 -45 4 0 6 11 3 25 -2 14 0 25 7 25 6 0 18
-11 27 -25 24 -37 34 -31 34 20 0 25 -4 45 -10 45 -5 0 -10 -10 -10 -22 l0
-21 -23 21 c-13 12 -26 22 -30 22 -4 0 -7 -20 -7 -45z"/>
<path d="M2890 7940 c0 -5 6 -9 13 -7 8 1 12 -11 12 -36 0 -52 23 -48 27 5 l3
42 29 -27 c16 -15 33 -27 37 -27 5 0 9 -5 9 -11 0 -7 -10 -9 -26 -5 -17 5 -23
3 -19 -4 9 -15 51 -12 64 4 9 11 8 18 -4 30 -9 9 -21 16 -26 16 -5 0 -9 5 -9
11 0 6 9 8 21 4 15 -5 19 -4 15 4 -9 14 -39 14 -53 0 -8 -8 -13 -8 -17 0 -9
14 -76 15 -76 1z"/>
<path d="M1404 7710 c-35 -11 -90 -67 -105 -107 -20 -54 0 -2604 21 -2668 12
-36 64 -90 100 -103 30 -11 963 -20 3172 -28 l1617 -6 45 26 c24 14 55 43 68
63 l23 38 6 530 c3 292 6 887 7 1324 l2 794 -24 41 c-38 64 -81 83 -211 90
-199 11 -4688 16 -4721 6z m3991 -69 c909 -8 868 -5 896 -73 16 -41 24 -1421
12 -2171 l-8 -479 -37 -34 -38 -34 -202 0 c-824 -1 -4511 32 -4556 41 -95 19
-86 -114 -92 1349 -3 707 -3 1303 1 1325 5 28 17 49 41 69 l33 28 1565 -7
c861 -4 1934 -10 2385 -14z"/>
<path d="M1543 4489 c-55 -10 -124 -41 -142 -62 -18 -23 -5 -21 30 3 37 27
157 52 211 44 78 -11 137 -35 163 -65 74 -89 -34 -174 -216 -172 -110 2 -176
33 -205 98 l-13 30 -1 -28 c0 -41 54 -93 122 -117 101 -35 247 -20 313 32 57
45 66 121 19 171 -46 50 -190 84 -281 66z"/>
<path d="M2146 4480 c-49 -13 -109 -46 -123 -70 -23 -36 -25 -83 -5 -120 78
-144 439 -118 467 33 11 59 -25 111 -100 142 -48 20 -185 28 -239 15z m166
-11 c76 -16 123 -43 138 -78 39 -96 -63 -158 -244 -149 -128 7 -186 42 -186
111 0 59 39 91 140 113 71 16 88 16 152 3z"/>
<path d="M2150 4356 c0 -25 5 -48 10 -51 6 -3 10 3 10 15 0 12 9 24 23 30 l22
9 -22 0 c-28 1 -31 21 -3 21 11 0 20 5 20 10 0 6 -13 10 -30 10 -29 0 -30 -2
-30 -44z"/>
<path d="M2230 4390 c0 -5 7 -10 15 -10 20 0 19 -10 -6 -36 -12 -12 -18 -27
-14 -33 8 -14 52 -14 60 -1 3 6 -1 10 -9 10 -20 0 -20 9 0 31 9 10 14 25 11
34 -7 16 -57 21 -57 5z"/>
<path d="M2810 4484 c-32 -7 -111 -36 -107 -40 1 -2 25 3 52 11 108 33 263 9
311 -47 66 -79 -8 -152 -175 -174 -95 -12 -241 44 -241 93 0 7 -4 13 -10 13
-15 0 -12 -17 7 -53 9 -18 16 -36 14 -42 -1 -5 0 -7 4 -3 4 3 32 -6 63 -20
137 -63 362 -9 388 91 15 63 -23 117 -103 147 -57 21 -156 33 -203 24z"/>
<path d="M3521 4471 c148 -16 218 -69 197 -148 -11 -44 -87 -80 -186 -89 -184
-17 -307 79 -226 175 14 17 19 29 11 25 -29 -11 -50 -68 -45 -118 6 -52 18
-65 88 -99 67 -33 223 -32 298 2 68 31 92 61 92 118 0 38 -6 51 -33 78 -41 41
-89 56 -192 60 l-80 4 76 -8z"/>
<path d="M4035 4465 l-30 -14 35 7 c19 4 69 7 110 6 144 -1 230 -66 196 -148
-16 -39 -38 -53 -111 -72 -96 -26 -240 -9 -287 33 -50 45 -42 117 17 149 39
21 40 29 1 15 -33 -13 -66 -66 -66 -108 0 -56 16 -81 72 -109 110 -57 303 -41
375 31 28 28 33 40 33 80 0 40 -5 52 -33 80 -20 20 -53 38 -89 49 -68 19 -182
20 -223 1z"/>
<path d="M4680 4466 c-101 -29 -150 -76 -150 -144 0 -34 27 -98 37 -88 4 3 13
0 22 -8 39 -34 163 -52 247 -37 151 28 218 117 158 209 -40 60 -212 98 -314
68z m236 -36 c60 -30 78 -61 63 -113 -13 -47 -61 -73 -161 -87 -105 -15 -205
6 -247 51 -26 28 -28 88 -3 118 51 62 249 80 348 31z"/>
<path d="M4685 4339 c-8 -46 11 -82 21 -41 4 12 13 22 20 22 8 0 14 5 14 10 0
6 -7 10 -15 10 -8 0 -15 5 -15 10 0 6 9 10 21 10 11 0 17 5 14 10 -3 6 -17 10
-30 10 -19 0 -24 -7 -30 -41z"/>
<path d="M4767 4348 c-11 -22 -13 -37 -6 -50 13 -24 46 -23 59 2 13 23 6 40
-16 40 -11 0 -13 6 -9 20 10 32 -11 23 -28 -12z m33 -39 c0 -5 -4 -9 -10 -9
-5 0 -10 7 -10 16 0 8 5 12 10 9 6 -3 10 -10 10 -16z"/>
<path d="M5325 4465 c-77 -19 -120 -41 -140 -71 -20 -31 -26 -99 -12 -132 15
-32 106 -72 181 -79 169 -15 306 60 293 160 -9 64 -61 104 -165 126 -65 14
-93 13 -157 -4z m213 -30 c72 -29 98 -80 71 -139 -33 -71 -254 -99 -365 -45
-48 23 -69 62 -59 107 8 40 33 60 102 83 70 23 185 20 251 -6z"/>
<path d="M5327 4373 c-11 -10 -8 -93 3 -93 6 0 10 9 10 20 0 13 7 20 20 20 11
0 20 5 20 10 0 6 -9 10 -20 10 -11 0 -20 5 -20 10 0 6 9 10 21 10 11 0 17 5
14 10 -7 11 -38 13 -48 3z"/>
<path d="M5400 4369 c0 -5 7 -9 15 -9 19 0 19 -11 0 -36 -17 -22 -19 -44 -5
-44 11 0 40 53 40 73 0 8 -11 17 -25 19 -14 3 -25 1 -25 -3z"/>
<path d="M5980 4470 c-138 -23 -199 -86 -178 -184 10 -46 13 -49 67 -75 49
-23 68 -26 161 -26 94 0 111 3 160 27 61 30 90 68 90 118 0 72 -58 117 -175
139 -64 12 -60 12 -125 1z m176 -35 c78 -23 113 -75 92 -135 -20 -58 -160 -98
-277 -79 -90 14 -130 35 -148 76 -12 31 -12 38 4 71 14 29 29 42 73 59 66 27
181 31 256 8z"/>
<path d="M5956 4358 c-9 -37 -7 -78 5 -78 6 0 13 9 16 20 3 11 12 20 19 20 8
0 14 5 14 10 0 6 -7 10 -15 10 -8 0 -15 5 -15 10 0 6 9 10 21 10 11 0 17 5 14
10 -12 20 -52 11 -59 -12z"/>
<path d="M6040 4365 c-7 -9 -10 -18 -7 -22 4 -3 2 -12 -4 -20 -14 -16 5 -43
31 -43 26 0 39 21 33 53 -7 35 -36 53 -53 32z m35 -15 c-3 -5 -10 -10 -16 -10
-5 0 -9 5 -9 10 0 6 7 10 16 10 8 0 12 -4 9 -10z m-5 -40 c0 -5 -4 -10 -10
-10 -5 0 -10 5 -10 10 0 6 5 10 10 10 6 0 10 -4 10 -10z"/>
<path d="M3365 4455 l-30 -14 30 6 c17 3 39 10 50 14 l20 8 -20 0 c-11 0 -33
-6 -50 -14z"/>
<path d="M1516 4384 c-11 -29 -7 -76 7 -71 6 2 12 10 12 17 0 7 9 16 19 20 18
6 18 7 -5 13 -19 6 -21 9 -9 16 8 5 17 8 21 5 4 -2 10 0 14 6 4 6 -6 10 -23
10 -18 0 -32 -6 -36 -16z"/>
<path d="M1604 4384 c3 -9 6 -29 6 -45 0 -16 5 -29 10 -29 6 0 10 20 10 45 0
35 -4 45 -16 45 -11 0 -14 -5 -10 -16z"/>
<path d="M2787 4393 c-11 -10 -8 -93 3 -93 6 0 10 9 10 20 0 13 7 20 20 20 11
0 20 5 20 10 0 6 -9 10 -20 10 -11 0 -20 5 -20 10 0 6 12 10 26 10 14 0 23 4
19 10 -7 11 -48 14 -58 3z"/>
<path d="M2860 4390 c0 -5 7 -10 15 -10 21 0 19 -20 -2 -20 -17 -1 -17 -1 0
-14 22 -17 22 -26 -3 -26 -11 0 -20 -5 -20 -11 0 -6 14 -9 33 -7 30 3 32 6 33
41 1 27 -4 41 -17 47 -23 13 -39 13 -39 0z"/>
<path d="M2637 4371 c-4 -17 -3 -21 5 -13 5 5 8 16 6 23 -3 8 -7 3 -11 -10z"/>
<path d="M3420 4345 c0 -25 5 -45 10 -45 6 0 10 7 10 15 0 9 10 19 22 24 21 8
21 8 -3 16 l-24 8 23 4 c32 6 27 23 -8 23 -29 0 -30 -2 -30 -45z"/>
<path d="M3506 4368 c-20 -28 -20 -48 -1 -48 8 0 15 -4 15 -10 0 -17 28 -11
32 8 5 21 -11 72 -22 72 -5 0 -16 -10 -24 -22z"/>
<path d="M4054 4376 c-8 -22 0 -81 11 -78 6 2 9 10 7 18 -2 8 5 14 18 14 11 0
20 5 20 10 0 6 -7 10 -15 10 -8 0 -15 5 -15 10 0 6 7 10 15 10 8 0 15 5 15 10
0 15 -50 12 -56 -4z"/>
<path d="M4130 4366 c0 -16 7 -26 21 -29 26 -7 16 -27 -14 -27 -16 0 -18 -3
-9 -12 9 -9 18 -9 37 0 30 14 33 42 5 49 -23 6 -27 23 -5 23 8 0 15 5 15 10 0
6 -11 10 -25 10 -20 0 -25 -5 -25 -24z"/>
<path d="M7932 7798 c-15 -15 -3 -38 19 -38 12 0 19 7 19 19 0 22 -23 34 -38
19z"/>
<path d="M7306 7502 c3 -10 -2 -24 -10 -31 -19 -16 -21 -31 -4 -31 6 0 8 3 5
7 -4 3 2 16 13 28 18 19 19 24 6 34 -12 10 -14 9 -10 -7z"/>
<path d="M7447 7513 c-13 -12 -7 -74 7 -79 24 -9 56 15 56 41 0 31 -44 58 -63
38z m43 -38 c0 -18 -5 -25 -20 -25 -15 0 -20 7 -20 25 0 18 5 25 20 25 15 0
20 -7 20 -25z"/>
<path d="M7350 7492 c0 -11 -3 -27 -6 -36 -3 -9 -1 -16 5 -16 6 0 11 12 11 28
l1 27 17 -27 c24 -40 42 -36 41 10 -2 30 -3 32 -6 10 -5 -34 -15 -36 -28 -6
-13 29 -35 35 -35 10z"/>
<path d="M7950 7230 c0 -37 2 -40 28 -39 22 1 23 3 5 6 -16 3 -21 10 -19 30 2
15 11 30 22 34 16 6 14 8 -8 8 -26 1 -28 -2 -28 -39z"/>
<path d="M8025 7259 c-4 -5 0 -18 9 -28 20 -22 20 -28 -1 -34 -14 -4 -12 -5 5
-6 15 -1 22 5 22 18 0 11 -6 21 -12 24 -10 3 -10 7 1 20 11 15 11 17 -2 17 -9
0 -19 -5 -22 -11z"/>
<path d="M8092 7258 c-22 -22 -14 -57 13 -64 14 -4 29 -4 32 0 4 3 -3 6 -14 6
-22 0 -33 16 -26 38 3 6 13 12 24 12 10 0 19 5 19 10 0 14 -33 13 -48 -2z"/>
<path d="M9045 7539 c-55 -41 -54 -48 2 -34 39 10 57 10 93 -1 24 -7 46 -12
48 -10 4 5 -88 76 -97 76 -3 0 -24 -14 -46 -31z"/>
<path d="M8598 6928 l-26 -42 30 -44 c16 -24 31 -42 33 -40 2 2 -2 24 -8 51
-7 33 -7 57 0 82 15 47 4 44 -29 -7z"/>
<path d="M9520 6951 c15 -28 15 -90 1 -134 -7 -21 -11 -41 -8 -43 7 -7 77 85
77 100 0 16 -59 96 -71 96 -6 0 -6 -8 1 -19z"/>
<path d="M7351 6840 c-17 -10 -7 -40 14 -40 8 0 15 9 15 19 0 24 -12 32 -29
21z"/>
<path d="M7443 6821 c-1 -14 3 -18 13 -14 16 6 14 25 -2 30 -5 2 -10 -6 -11
-16z"/>
<path d="M7880 6531 c0 -43 4 -46 73 -50 42 -2 47 0 47 18 0 22 -26 29 -32 10
-3 -9 -10 -9 -27 0 -32 18 -10 42 30 34 22 -4 29 -2 29 11 0 13 -11 16 -60 16
l-60 0 0 -39z"/>
<path d="M8030 6556 c0 -19 32 -30 41 -14 7 10 11 10 23 -2 14 -14 14 -17 -4
-28 -12 -7 -20 -8 -20 -2 0 5 -9 10 -20 10 -13 0 -20 -7 -20 -20 0 -18 7 -20
60 -20 l60 0 0 45 0 45 -60 0 c-45 0 -60 -4 -60 -14z"/>
<path d="M8985 6280 c3 -5 23 -22 44 -39 l38 -30 49 34 c50 36 47 41 -20 26
-27 -7 -49 -5 -77 5 -22 7 -37 9 -34 4z"/>
<path d="M7487 6270 c3 -11 7 -20 9 -20 2 0 4 9 4 20 0 11 -4 20 -9 20 -5 0
-7 -9 -4 -20z"/>
<path d="M8052 6038 c-14 -14 -16 -68 -2 -68 6 0 10 14 10 30 0 21 5 30 16 30
14 0 14 -3 4 -15 -9 -11 -9 -15 -1 -15 18 0 26 31 10 41 -18 12 -23 11 -37 -3z"/>
<path d="M8121 6036 c-9 -10 -8 -16 4 -26 20 -17 19 -30 -2 -31 -11 0 -13 -2
-5 -6 7 -3 20 -2 28 1 15 6 15 9 0 31 -15 23 -15 25 -1 25 9 0 13 5 10 10 -9
14 -20 13 -34 -4z"/>
<path d="M7897 6005 c-9 -19 -13 -35 -7 -35 5 0 12 5 15 10 3 6 15 10 26 10
10 0 19 -4 19 -10 0 -5 9 -10 19 -10 14 0 20 9 23 35 5 44 -8 46 -18 3 l-7
-33 -14 33 c-17 41 -35 41 -56 -3z"/>
<path d="M8013 6033 c4 -3 1 -13 -6 -21 -10 -13 -9 -14 3 -10 19 6 26 38 9 38
-7 0 -9 -3 -6 -7z"/>
<path d="M8800 5730 c0 -36 3 -40 25 -40 31 0 33 17 3 23 -23 4 -23 4 2 15 18
8 20 11 8 11 -10 1 -18 5 -18 10 0 5 8 12 18 14 10 3 6 5 -10 6 -26 1 -28 -2
-28 -39z"/>
<path d="M8870 5729 c0 -24 4 -38 10 -34 6 3 10 16 10 28 1 21 2 20 18 -6 9
-15 21 -26 27 -24 14 5 19 77 6 77 -6 0 -11 -12 -11 -27 l-1 -28 -17 28 c-25
40 -42 35 -42 -14z"/>
<path d="M8968 5763 c6 -2 12 -20 12 -39 0 -19 5 -34 10 -34 6 0 10 15 10 34
0 19 6 37 13 39 6 3 -4 5 -23 5 -19 0 -29 -2 -22 -5z"/>
<path d="M9030 5730 c0 -39 1 -40 33 -39 23 1 26 3 10 6 -26 5 -31 23 -8 23
21 0 19 18 -2 23 -15 3 -14 6 7 15 25 11 25 11 -7 11 -32 1 -33 0 -33 -39z"/>
<path d="M9106 5748 c-9 -34 -7 -58 4 -58 6 0 10 13 10 28 0 32 8 44 22 36 5
-3 4 -11 -2 -19 -12 -14 -3 -45 12 -45 6 0 7 8 4 17 -4 9 -1 20 5 24 19 11 2
39 -25 39 -16 0 -26 -7 -30 -22z"/>
<path d="M7957 5376 c-7 -18 1 -26 25 -26 11 0 18 7 18 20 0 23 -35 28 -43 6z"/>
<path d="M7471 5154 c0 -11 3 -14 6 -6 3 7 2 16 -1 19 -3 4 -6 -2 -5 -13z"/>
<path d="M7471 5084 c0 -11 3 -14 6 -6 3 7 2 16 -1 19 -3 4 -6 -2 -5 -13z"/>
<path d="M8002 5133 c2 -10 10 -18 18 -18 8 0 16 8 18 18 2 12 -3 17 -18 17
-15 0 -20 -5 -18 -17z"/>
<path d="M611 4706 c-8 -10 -8 -16 3 -25 10 -9 16 -8 26 3 12 15 6 36 -9 36
-5 0 -14 -6 -20 -14z"/>
<path d="M9267 4623 c-14 -13 -6 -33 13 -33 13 0 20 7 20 20 0 19 -20 27 -33
13z"/>
<path d="M9202 4558 c3 -9 30 -14 76 -16 60 -2 72 0 72 13 0 12 -14 15 -76 15
-56 0 -75 -3 -72 -12z"/>
<path d="M9250 4505 c0 -8 9 -15 20 -15 11 0 20 7 20 15 0 8 -9 15 -20 15 -11
0 -20 -7 -20 -15z"/>
<path d="M650 4446 c0 -9 -6 -16 -14 -16 -8 0 -17 -4 -20 -9 -4 -5 3 -7 14 -4
25 7 27 -13 3 -21 -38 -12 -73 -56 -73 -91 0 -19 4 -36 9 -39 4 -3 6 6 3 20
-11 58 70 88 103 37 18 -26 18 -27 -14 -55 -27 -24 -28 -28 -12 -28 25 0 83
50 112 96 l21 35 -26 39 c-19 28 -33 40 -50 40 -14 0 -31 3 -40 6 -11 4 -16 1
-16 -10z"/>
<path d="M600 4315 c-6 -8 -9 -23 -5 -35 6 -20 12 -19 54 9 12 8 12 12 2 25
-17 20 -35 20 -51 1z"/>
<path d="M9225 4100 c-3 -5 0 -18 7 -29 10 -17 9 -23 -7 -41 -14 -15 -16 -23
-7 -32 9 -9 16 -7 32 7 19 17 21 17 38 2 14 -13 21 -14 30 -5 9 9 8 16 -5 30
-15 17 -15 19 2 38 14 16 16 23 7 32 -9 9 -17 7 -33 -8 -20 -18 -22 -18 -34
-1 -14 19 -21 21 -30 7z"/>
<path d="M7972 4043 c2 -10 10 -18 18 -18 8 0 16 8 18 18 2 12 -3 17 -18 17
-15 0 -20 -5 -18 -17z"/>
<path d="M7965 3990 c-4 -7 -3 -16 3 -22 14 -14 45 -2 40 15 -6 16 -34 21 -43
7z"/>
<path d="M2300 3970 c0 -15 5 -20 18 -18 9 2 17 10 17 18 0 8 -8 16 -17 18
-13 2 -18 -3 -18 -18z"/>
<path d="M2375 3980 c-9 -15 4 -30 26 -30 12 0 19 7 19 20 0 21 -33 29 -45 10z"/>
<path d="M3070 3979 c0 -5 5 -7 10 -4 6 3 10 8 10 11 0 2 -4 4 -10 4 -5 0 -10
-5 -10 -11z"/>
<path d="M3560 3979 c0 -5 5 -7 10 -4 6 3 10 8 10 11 0 2 -4 4 -10 4 -5 0 -10
-5 -10 -11z"/>
<path d="M3560 3949 c0 -5 5 -7 10 -4 6 3 10 8 10 11 0 2 -4 4 -10 4 -5 0 -10
-5 -10 -11z"/>
<path d="M1054 3979 c-10 -17 13 -36 27 -22 12 12 4 33 -11 33 -5 0 -12 -5
-16 -11z"/>
<path d="M4295 3980 c3 -5 8 -10 11 -10 2 0 4 5 4 10 0 6 -5 10 -11 10 -5 0
-7 -4 -4 -10z"/>
<path d="M4295 3950 c3 -5 8 -10 11 -10 2 0 4 5 4 10 0 6 -5 10 -11 10 -5 0
-7 -4 -4 -10z"/>
<path d="M1002 3798 c-16 -16 -15 -53 3 -68 20 -17 54 -3 61 26 11 42 -34 72
-64 42z"/>
<path d="M9010 3786 c0 -1 5 -17 11 -35 14 -39 34 -40 54 0 21 39 10 52 -16
19 l-19 -25 -6 23 c-4 12 -10 22 -15 22 -5 0 -9 -2 -9 -4z"/>
<path d="M9095 3759 c-18 -35 -13 -48 10 -29 12 10 19 10 27 2 22 -22 48 -14
48 13 0 14 5 25 10 25 6 0 10 -6 9 -12 -3 -25 1 -38 12 -38 5 0 7 5 4 10 -4 6
-2 17 4 24 8 10 7 16 -3 25 -25 21 -51 9 -54 -24 l-4 -30 -13 33 c-17 40 -30
41 -50 1z"/>
<path d="M9270 3756 c0 -25 5 -35 20 -39 11 -3 23 -1 26 4 3 5 -2 9 -10 9 -11
0 -16 9 -16 30 0 17 -4 30 -10 30 -5 0 -10 -15 -10 -34z"/>
<path d="M9337 3783 c-11 -10 -8 -63 3 -63 6 0 10 16 10 35 0 36 -2 40 -13 28z"/>
<path d="M9368 3760 c-3 -17 -1 -33 4 -36 4 -3 8 2 8 10 0 21 10 20 26 -1 12
-16 15 -16 24 -3 13 19 13 50 0 50 -5 0 -10 -8 -11 -17 0 -15 -3 -14 -16 5
-21 30 -30 28 -35 -8z"/>
<path d="M9458 3784 c-12 -11 -10 -64 2 -64 6 0 10 7 10 16 0 12 4 11 19 -7
l18 -23 0 42 c0 40 -1 42 -17 27 -17 -15 -19 -15 -22 0 -1 9 -6 13 -10 9z"/>
<path d="M6075 3764 c-20 -20 -16 -53 8 -68 39 -24 79 44 41 71 -23 17 -29 16
-49 -3z"/>
<path d="M6730 3755 c0 -8 7 -15 15 -15 8 0 15 7 15 15 0 8 -7 15 -15 15 -8 0
-15 -7 -15 -15z"/>
<path d="M9190 3506 c0 -10 15 -17 43 -21 60 -9 91 -3 95 18 3 15 -5 17 -67
17 -55 0 -71 -3 -71 -14z"/>
<path d="M2625 3550 c-8 -13 4 -32 16 -25 12 8 12 35 0 35 -6 0 -13 -4 -16
-10z"/>
<path d="M4520 3496 c0 -9 5 -16 10 -16 6 0 10 4 10 9 0 6 -4 13 -10 16 -5 3
-10 -1 -10 -9z"/>
<path d="M5114 3509 c-9 -16 10 -31 30 -23 13 5 14 9 5 20 -14 17 -25 18 -35
3z"/>
<path d="M5201 3511 c-8 -5 -10 -14 -7 -20 9 -13 33 -15 40 -2 9 14 -18 31
-33 22z"/>
<path d="M7332 3470 c-10 -17 -10 -20 3 -20 8 0 15 2 15 4 0 2 3 11 6 20 9 23
-9 20 -24 -4z"/>
<path d="M1370 3316 c0 -9 5 -16 10 -16 6 0 10 4 10 9 0 6 -4 13 -10 16 -5 3
-10 -1 -10 -9z"/>
<path d="M2616 3333 c-3 -4 -6 -24 -6 -45 0 -26 4 -38 14 -38 22 0 47 30 44
53 -3 20 -40 41 -52 30z"/>
<path d="M9576 3314 c-27 -26 -18 -34 39 -34 58 0 66 7 37 33 -23 21 -56 22
-76 1z"/>
<path d="M8090 3191 c0 -24 25 -34 40 -16 15 18 5 35 -21 35 -12 0 -19 -7 -19
-19z"/>
<path d="M8677 3196 c-8 -20 20 -43 35 -28 14 14 3 42 -16 42 -7 0 -16 -6 -19
-14z"/>
<path d="M9360 3200 c0 -5 5 -10 10 -10 6 0 10 5 10 10 0 6 -4 10 -10 10 -5 0
-10 -4 -10 -10z"/>
<path d="M1705 3070 c-3 -5 -1 -10 4 -10 6 0 11 5 11 10 0 6 -2 10 -4 10 -3 0
-8 -4 -11 -10z"/>
<path d="M9234 2986 c-4 -17 -14 -26 -32 -28 -27 -3 -39 -32 -14 -34 6 -1 19
-2 27 -3 8 0 15 -10 15 -20 0 -31 19 -35 32 -7 7 17 19 26 35 26 16 0 23 6 23
20 0 15 -7 20 -25 20 -20 0 -25 5 -25 25 0 33 -28 33 -36 1z"/>
<path d="M6570 3040 c0 -5 5 -10 10 -10 6 0 10 5 10 10 0 6 -4 10 -10 10 -5 0
-10 -4 -10 -10z"/>
<path d="M6630 3040 c0 -5 5 -10 10 -10 6 0 10 5 10 10 0 6 -4 10 -10 10 -5 0
-10 -4 -10 -10z"/>
<path d="M6695 3040 c-3 -5 1 -10 9 -10 9 0 16 5 16 10 0 6 -4 10 -9 10 -6 0
-13 -4 -16 -10z"/>
<path d="M6764 3035 c-7 -18 3 -35 21 -35 18 0 26 25 12 39 -15 15 -27 14 -33
-4z"/>
<path d="M1034 2878 c-12 -15 -6 -108 7 -108 5 0 9 18 9 39 0 22 5 41 10 43 7
2 6 10 -3 22 -11 14 -15 15 -23 4z"/>
<path d="M6547 2608 c-2 -18 -4 -34 -2 -36 7 -8 45 -9 50 -1 4 5 -4 9 -17 9
-22 1 -22 1 -4 15 18 14 18 15 2 15 -9 0 -14 5 -11 10 4 6 10 8 15 5 5 -3 11
-1 15 5 3 6 -4 10 -18 10 -20 0 -26 -6 -30 -32z"/>
<path d="M6617 2633 c-11 -10 -8 -63 3 -63 6 0 10 9 10 21 0 21 0 21 18 -1 22
-27 42 -19 42 16 0 13 5 24 10 24 6 0 10 -13 10 -30 0 -37 18 -40 22 -3 4 38
28 42 28 5 0 -18 6 -32 16 -36 23 -9 34 -7 34 4 0 6 -7 10 -15 10 -21 0 -19
20 3 21 14 0 14 2 -3 9 -19 8 -18 11 4 14 5 0 13 4 17 9 4 4 -27 7 -69 7 -73
0 -77 -1 -77 -22 l-1 -23 -18 23 c-21 24 -24 25 -34 15z"/>
<path d="M6831 2603 c0 -30 2 -34 9 -18 7 18 8 19 15 3 4 -10 10 -18 14 -18 4
0 7 8 7 18 1 9 3 24 5 32 3 10 -5 16 -23 18 -26 3 -28 1 -27 -35z m34 17 c3
-5 1 -10 -4 -10 -6 0 -11 5 -11 10 0 6 2 10 4 10 3 0 8 -4 11 -10z"/>
<path d="M4180 2845 c0 -8 7 -15 15 -15 8 0 15 4 15 9 0 5 -7 11 -15 15 -9 3
-15 0 -15 -9z"/>
<path d="M4172 2788 c5 -15 37 -18 41 -3 1 6 -9 12 -22 13 -16 3 -22 -1 -19
-10z"/>
<path d="M6080 2830 c0 -5 7 -10 16 -10 8 0 12 5 9 10 -3 6 -10 10 -16 10 -5
0 -9 -4 -9 -10z"/>
<path d="M6072 2778 c5 -15 28 -18 29 -3 0 6 -7 12 -17 13 -10 3 -15 -1 -12
-10z"/>
<path d="M9310 2644 c0 -8 5 -12 10 -9 6 3 10 10 10 16 0 5 -4 9 -10 9 -5 0
-10 -7 -10 -16z"/>
<path d="M964 2605 c-7 -18 3 -35 21 -35 18 0 26 15 19 34 -8 20 -33 21 -40 1z"/>
<path d="M2860 2600 c0 -5 5 -10 10 -10 6 0 10 5 10 10 0 6 -4 10 -10 10 -5 0
-10 -4 -10 -10z"/>
<path d="M6130 2560 c0 -11 7 -20 15 -20 8 0 15 9 15 20 0 11 -7 20 -15 20 -8
0 -15 -9 -15 -20z"/>
<path d="M9074 2366 c-11 -29 1 -61 24 -64 12 -2 22 1 22 7 0 6 -7 11 -15 11
-21 0 -19 20 3 21 15 0 14 1 -3 8 -19 8 -19 8 0 19 19 11 19 11 -3 12 -12 0
-25 -6 -28 -14z"/>
<path d="M9140 2345 c0 -19 4 -35 9 -35 5 0 7 10 4 23 -5 20 -2 19 20 -8 26
-31 31 -28 39 18 5 31 23 24 26 -11 4 -37 22 -34 22 4 0 15 6 24 15 24 11 0
15 -8 13 -27 -3 -24 1 -28 25 -31 15 -2 27 1 27 7 0 6 -8 11 -17 11 -15 0 -16
2 -3 10 13 9 13 11 0 20 -13 8 -12 10 3 10 9 0 17 4 17 9 0 5 -32 9 -71 8 -61
0 -72 -3 -77 -19 -4 -18 -5 -18 -19 2 -21 30 -33 24 -33 -15z"/>
<path d="M9362 2368 c-7 -7 -12 -22 -12 -34 0 -27 20 -43 20 -17 1 17 1 17 14
1 14 -19 28 -14 20 7 -3 7 0 16 6 20 8 5 8 11 -1 21 -14 17 -31 18 -47 2z"/>
<path d="M1638 2385 c-23 -30 -22 -38 0 -58 25 -23 37 -21 57 9 16 25 16 27
-6 50 -28 29 -30 29 -51 -1z"/>
<path d="M2203 2393 c21 -5 21 -8 2 -30 -15 -18 -20 -33 -10 -33 3 0 4 1 3 3
-2 2 5 11 15 21 24 25 22 46 -5 45 -17 -1 -19 -2 -5 -6z"/>
<path d="M2251 2363 c2 -33 3 -34 6 -9 l5 28 28 -33 27 -34 4 43 c3 23 1 42
-3 42 -5 0 -8 -12 -8 -27 l-1 -28 -20 28 c-28 37 -39 34 -38 -10z"/>
<path d="M2340 2360 c0 -38 1 -40 27 -36 35 7 45 19 41 47 -2 19 -10 25 -35
27 -32 3 -33 2 -33 -38z m55 5 c0 -13 -8 -21 -23 -23 -21 -3 -23 2 -13 46 1 2
9 2 19 0 9 -2 17 -12 17 -23z"/>
<path d="M7319 2387 c-13 -29 -4 -80 14 -74 19 6 28 70 12 86 -12 12 -16 11
-26 -12z"/>
<path d="M977 2374 c-14 -15 -6 -34 14 -34 14 0 19 5 17 17 -3 18 -20 27 -31
17z"/>
<path d="M2920 2350 c0 -15 5 -20 18 -18 9 2 17 10 17 18 0 8 -8 16 -17 18
-13 2 -18 -3 -18 -18z"/>
</g>
</svg>
